<?xml version="1.0" encoding="utf-8"?>
<!-- Generator: Adobe Illustrator 23.0.5, SVG Export Plug-In . SVG Version: 6.00 Build 0)  -->
<svg version="1.1" id="Capa_1" xmlns="http://www.w3.org/2000/svg" xmlns:xlink="http://www.w3.org/1999/xlink" x="0px" y="0px"
	 viewBox="0 0 425.2 380.5" style="enable-background:new 0 0 425.2 380.5;" xml:space="preserve">
<style type="text/css">
	.st0{fill:#FFFFFF;}
	.st1{fill:#C6C6C6;}
	.st2{fill:#3D454F;}
	.st3{fill:#4E5765;}
	.st4{fill:#22262D;}
	.st5{clip-path:url(#SVGID_2_);}
	.st6{fill:none;stroke:#2C343F;stroke-width:2.1015;stroke-linecap:round;stroke-linejoin:round;stroke-miterlimit:10;}
	.st7{fill:#F7C7AD;}
	.st8{fill:#DADADA;}
	.st9{opacity:0.5;fill:#FFFFFF;}
	.st10{fill:#0D3953;}
	.st11{fill:#00B1C3;}
	.st12{fill:#031B2B;}
	.st13{fill:#BE1622;}
	.st14{fill:#432918;}
	.st15{fill:#DEDEDE;}
	.st16{fill:#00818D;}
	.st17{fill:#464F5B;}
	.st18{fill:none;stroke:#2C343F;stroke-width:2.5593;stroke-linecap:round;stroke-linejoin:round;stroke-miterlimit:10;}
	.st19{fill:#232A33;}
	.st20{fill:#E6332A;}
	.st21{fill:#D42A26;}
	.st22{fill:#8C1F14;}
	.st23{fill:none;stroke:#ef6603;stroke-width:1.9544;stroke-miterlimit:10;}
	.st24{fill:#ef6603;}
	.st25{fill:#127180;}
	.st26{fill:#B2B2B2;}
</style>
<rect class="st0" width="425.2" height="380.5"/>
<g>
	<g>
		<path class="st1" d="M392.8,287.6c0,13.9-86.3,25.2-192.7,25.2S7.4,301.6,7.4,287.6c0-13.9,86.3-25.2,192.7-25.2
			S392.8,273.7,392.8,287.6z"/>
		<g>
			<path class="st2" d="M324.2,240.4c0,4-3.2,7.3-7.3,7.3H78.7c-4,0-7.3-3.2-7.3-7.3V74.9c0-4,3.2-7.3,7.3-7.3H317
				c4,0,7.3,3.2,7.3,7.3V240.4z"/>
			<path class="st0" d="M309,239.5c2.4,0,4.3-1.9,4.3-4.3V81.4c0-2.4-1.9-4.3-4.3-4.3l-24.4-2.5H312c2.4,0,4.4,2,4.4,4.4v158.6
				c0,2.4-2,4.4-4.4,4.4h-33.1L309,239.5z"/>
			<g>
				<polygon class="st2" points="356.8,274.8 39.9,274.8 69.6,247.6 324.2,247.6 				"/>
				<polygon class="st3" points="331.7,263.8 316.4,250.9 75.5,250.9 61.5,263.8 				"/>
				<polygon class="st3" points="242.6,272.2 237.4,267.9 155.3,267.9 150.6,272.2 				"/>
				<rect x="39.9" y="274.8" class="st4" width="316.9" height="9.6"/>
			</g>
		</g>
		<g>
			<defs>
				<path id="SVGID_1_" d="M306.9,229.1c0,3.4-2.8,6.2-6.2,6.2H98.5c-3.4,0-6.2-2.8-6.2-6.2V88.6c0-3.4,2.8-6.2,6.2-6.2h202.3
					c3.4,0,6.2,2.8,6.2,6.2V229.1z"/>
			</defs>
			<use xlink:href="#SVGID_1_"  style="overflow:visible;fill:#FFFFFF;"/>
			<clipPath id="SVGID_2_">
				<use xlink:href="#SVGID_1_"  style="overflow:visible;"/>
			</clipPath>
			<g class="st5">
				<g>
					<path class="st6" d="M214.8,143.4V140c0,0-0.2-2.6-2.6-4.2c0,0-7.5-4.4-7.8-20.9c0,0-0.6-23-30-23h-13.7"/>
					<path class="st6" d="M112.8,143.4V140c0,0,0.2-2.6,2.6-4.2c0,0,7.5-4.4,7.8-20.9c0,0,0.6-23,30-23h13.7"/>
				</g>
				<g>
					<g>
						<path class="st7" d="M201.6,201.3c-15-1.7-22.4-6.1-23.6-6.9h-26.7c-1.3,0.8-8.6,5.3-23.6,6.9c0,0-28.6,1.1-27.8,52.9
							c0,0,21.5,9.7,64.8,9.6c43.3,0.1,64.8-9.6,64.8-9.6C230.2,202.3,201.6,201.3,201.6,201.3z"/>
						<path class="st0" d="M127.6,201.3c0,0-28.6,1.1-27.8,52.9c0,0,21.5,9.7,64.8,9.6c43.3,0.1,64.8-9.6,64.8-9.6
							c0.8-51.8-27.8-52.9-27.8-52.9s-27.8-2-37,9.9C164.6,211.1,155.8,196.6,127.6,201.3z"/>
						<g>
							<rect x="151" y="179.9" class="st7" width="27.3" height="19.8"/>
							<path class="st8" d="M151,185.6L151,185.6c0.3,0.4,0.6,0.7,0.9,1c0.9,0.9,1.7,1.7,2.7,2.5c0,0,0.1,0,0.1,0.1
								c0.3,0.2,0.6,0.4,0.9,0.7c0.5,0.3,1,0.6,1.5,0.9c0.7,0.4,1.5,0.8,2.2,1.2c0.2,0.1,1,0.4,1.2,0.5c0.7,0.2,1.5,0.5,2.2,0.7
								c0.8,0.2,1.5,0.4,2.3,0.6c-0.2,0,2.1,0.3,1.5,0.3c1.8,0.2,3.7,0.3,5.5,0.3c0.8,0,1.6,0,2.4-0.1c0.3,0,1.4-0.2,1.6-0.2
								c0.8-0.2,1.5-0.4,2.2-0.6v-13.5H151V185.6C151,185.6,151,185.7,151,185.6z"/>
						</g>
						<path class="st7" d="M195.6,144.1c0,23.5-13.9,42.5-31,42.5c-17.1,0-31-19-31-42.5c0-23.5,13.9-38.2,31-38.2
							C181.7,105.9,195.6,120.6,195.6,144.1z"/>
						<path class="st9" d="M148,124.9c0-0.1,0-0.1,0-0.2c4.4-5.1,10.4-8,17.1-8c13.4,0,24.2,11.5,24.2,29.8c0,12.2-4.8,22.9-12,28.7
							C177.4,175.2,136.9,170.4,148,124.9z"/>
						<path class="st10" d="M149.9,195.1c-2.9,1.6-10.1,4.8-22.3,6.2c0,0-28.6,1.1-27.8,52.9c0,0,21.5,9.7,64.8,9.6
							c43.3,0.1,64.8-9.6,64.8-9.6c0.8-51.8-27.8-52.9-27.8-52.9c-12.3-1.4-19.4-4.6-22.3-6.2c0,0,15.2,34-14.7,64.5
							C164.6,259.6,135.7,229.8,149.9,195.1z"/>
						<path class="st11" d="M140.8,219.7c0,0.1,0,0.1,0,0.2c0.1,0.5,0.2,1.1,0.3,1.6c0.1,0,0.2-0.1,0.2-0.1
							C141.2,220.9,141,220.3,140.8,219.7z"/>
						<path class="st12" d="M201.6,201.3c-12.3-1.4-19.4-4.6-22.3-6.2c0,0,2.1,16.1-14.7,64.5c0,0-14.6-41-14.7-64.5
							c-2.9,1.6-10.1,4.8-22.3,6.2c0,0-1,9.9,5.3,23.4c0,0,4.3-2.3,6.7-1.7l-6.7,4.9c0,0,10.6,17.5,26.1,35.9h13
							c0,0,17.6-24.7,26.1-39.5c0,0-2.1-2.3-8.5-4.3c0,0,3.9-1.3,8.5-0.7C197.9,219.3,202.9,211.1,201.6,201.3z"/>
						<path class="st11" d="M164.6,263.8"/>
						<path class="st13" d="M164.6,259.6c-7.3-20.7-7.6-24.9-7.6-24.9l2.9-15l8.3,0.2l4.2,15.1C172.3,235,166.7,254.7,164.6,259.6z"
							/>
						<g>
							<path class="st13" d="M157.6,211.1h13.3c0,0,0.6,7.1-4.5,10.4h-4.9C161.4,221.5,156.1,216.6,157.6,211.1z"/>
							<path class="st8" d="M170.9,211.1h-2.4c0.2,0.5,0.3,1,0.3,1.6c0,2.5-2,4.5-4.5,4.5h-0.1c-2.5,0-4.5-2-4.5-4.5
								c0-0.6,0.1-1.1,0.3-1.6h-2.5c-1.5,5.4,3.8,10.4,3.8,10.4h4.9C171.5,218.2,170.9,211.1,170.9,211.1z"/>
						</g>
						<path class="st14" d="M164.8,114.9c0,0,27.3-16.3,30,38.7c0,0,9.6-26.8-7.4-47.4c0,0-17.7-19-45.6-1.9c0,0-5.8,3.5-10.7,1.9
							c0,0,2.6,4.6,6.4,5.6c0,0-4.6,3.4-10,2.3c0,0,2.5,6.5,6,7.4c0,0-7,12.2,0.8,32.1C134.3,153.6,134.1,100.9,164.8,114.9z"/>
						<path class="st1" d="M193.9,123.9c0,0-0.1-0.3-0.3-0.8c-0.2-0.5-0.4-1.3-0.8-2.2c-0.3-0.9-0.9-2-1.4-3.3
							c-0.3-0.6-0.7-1.3-1-1.9c-0.4-0.7-0.8-1.4-1.2-2.1c-0.5-0.7-0.9-1.4-1.5-2.1c-0.3-0.4-0.5-0.7-0.8-1.1
							c-0.3-0.4-0.6-0.7-0.9-1.1c-0.2-0.2-0.3-0.4-0.5-0.5c-0.2-0.2-0.3-0.3-0.5-0.5c-0.3-0.3-0.7-0.7-1.1-1
							c-0.8-0.6-1.5-1.4-2.3-1.9c-0.8-0.7-1.7-1.2-2.6-1.7c-0.9-0.5-1.9-1-2.9-1.4l-0.7-0.3c-0.2-0.1-0.5-0.2-0.8-0.3
							c-0.5-0.2-1-0.3-1.6-0.5c-0.5-0.1-1.1-0.2-1.6-0.3l-0.4-0.1l-0.4-0.1c-0.3,0-0.6-0.1-0.8-0.1c-1.1-0.1-2.2-0.2-3.3-0.2
							c-1.1,0-2.2,0-3.2,0.2c-0.3,0-0.5,0.1-0.8,0.1l-0.4,0.1l-0.4,0.1c-0.5,0.1-1.1,0.2-1.6,0.4c-0.5,0.1-1,0.3-1.5,0.4
							c-0.5,0.1-1,0.3-1.5,0.4c-2,0.6-3.9,1.3-5.6,2.1c-0.4,0.2-0.9,0.4-1.3,0.6c-0.4,0.2-0.8,0.4-1.2,0.7c-0.8,0.4-1.6,0.9-2.3,1.3
							c-1.5,0.9-2.9,1.6-4.3,2c-1.3,0.5-2.6,0.6-3.6,0.5c-0.3,0-0.5-0.1-0.7-0.1c-0.2-0.1-0.4-0.1-0.6-0.2c-0.4-0.1-0.7-0.3-0.9-0.4
							c-0.5-0.3-0.7-0.4-0.7-0.4s0.3,0.1,0.7,0.3c0.2,0.1,0.6,0.2,0.9,0.3c0.2,0,0.4,0.1,0.6,0.1c0.2,0,0.4,0,0.7,0
							c1,0,2.1-0.2,3.4-0.8c1.2-0.5,2.6-1.3,4-2.3c1.4-0.9,3-2,4.7-2.9c1.8-0.9,3.7-1.8,5.8-2.5c0.5-0.2,1-0.3,1.6-0.5
							c0.5-0.2,1.1-0.3,1.6-0.5c0.5-0.1,1.1-0.3,1.6-0.4l0.4-0.1l0.4-0.1c0.3,0,0.6-0.1,0.9-0.1c1.2-0.2,2.3-0.2,3.5-0.2
							c1.2,0,2.3,0.1,3.5,0.2c0.3,0,0.6,0.1,0.8,0.1l0.4,0.1l0.4,0.1c0.6,0.1,1.2,0.3,1.7,0.4c0.6,0.2,1.1,0.4,1.7,0.5
							c0.3,0.1,0.6,0.2,0.8,0.3l0.8,0.3c1.1,0.4,2.1,1,3.1,1.6c0.9,0.6,1.9,1.2,2.7,1.9c0.9,0.7,1.6,1.4,2.4,2.1
							c0.4,0.4,0.7,0.8,1.1,1.2c0.2,0.2,0.3,0.4,0.5,0.6c0.2,0.2,0.3,0.4,0.5,0.6c0.3,0.4,0.6,0.8,0.9,1.2c0.3,0.4,0.5,0.8,0.8,1.2
							c0.5,0.8,1,1.6,1.4,2.3c0.4,0.8,0.8,1.5,1.1,2.2c0.3,0.7,0.6,1.4,0.9,2.1c0.2,0.7,0.5,1.3,0.7,1.8c0.2,0.6,0.3,1.1,0.5,1.6
							c0.3,1,0.4,1.7,0.6,2.3C193.8,123.6,193.9,123.9,193.9,123.9z"/>
						<path class="st1" d="M190.2,125.5c0,0-0.1-0.2-0.2-0.7c-0.2-0.5-0.4-1.1-0.7-1.9c-0.2-0.4-0.3-0.9-0.5-1.4
							c-0.2-0.5-0.4-1-0.7-1.6c-0.3-0.6-0.6-1.1-0.9-1.8c-0.3-0.6-0.7-1.2-1.1-1.9c-0.8-1.3-1.7-2.6-2.8-3.9
							c-0.5-0.7-1.2-1.3-1.8-1.9c-0.3-0.3-0.7-0.6-1-0.9c-0.2-0.2-0.3-0.3-0.5-0.5c-0.2-0.1-0.4-0.3-0.5-0.4c-1.4-1.2-3.1-2.2-4.8-3
							l-0.7-0.3c-0.2-0.1-0.4-0.2-0.7-0.3c-0.5-0.1-0.9-0.3-1.4-0.4c-0.5-0.1-1-0.2-1.4-0.3c-0.2,0-0.5-0.1-0.7-0.1L169,104
							c-1.9-0.3-3.9-0.3-5.8-0.1c-0.2,0-0.5,0.1-0.7,0.1l-0.3,0.1l-0.2,0l-0.2,0c-0.5,0.1-1,0.2-1.5,0.3c-0.5,0.1-0.9,0.2-1.4,0.4
							c-0.5,0.1-0.9,0.3-1.4,0.4c-1.8,0.6-3.5,1.2-5,2c-1.5,0.8-2.9,1.6-4.3,2.4c-1.3,0.8-2.6,1.5-3.8,1.9c-1.2,0.4-2.3,0.6-3.3,0.5
							c-0.9-0.1-1.6-0.4-2-0.6c-0.4-0.3-0.6-0.4-0.6-0.4s0.2,0.1,0.7,0.3c0.2,0.1,0.5,0.2,0.8,0.3c0.2,0,0.3,0.1,0.5,0.1
							c0.2,0,0.4,0,0.6,0c0.9,0,1.9-0.2,3-0.7c1.1-0.5,2.3-1.2,3.5-2.1c1.2-0.9,2.6-1.8,4.2-2.7c1.6-0.8,3.3-1.6,5.1-2.3
							c0.5-0.2,0.9-0.3,1.4-0.5c0.5-0.1,1-0.3,1.4-0.4c0.5-0.1,1-0.2,1.4-0.4l0.2,0l0.2,0l0.4-0.1c0.3,0,0.5-0.1,0.8-0.1
							c2.1-0.3,4.2-0.2,6.3,0l0.8,0.1c0.3,0,0.5,0.1,0.8,0.2c0.5,0.1,1,0.2,1.5,0.4c0.5,0.2,1,0.3,1.5,0.5c0.3,0.1,0.5,0.2,0.7,0.3
							l0.7,0.3c1.9,0.9,3.6,2,5.1,3.3c0.2,0.2,0.4,0.3,0.6,0.5c0.2,0.2,0.3,0.3,0.5,0.5c0.3,0.3,0.7,0.7,1,1
							c0.6,0.7,1.2,1.4,1.8,2.1c1.1,1.4,1.9,2.9,2.7,4.2c0.3,0.7,0.7,1.4,1,2c0.3,0.7,0.5,1.3,0.7,1.9c0.2,0.6,0.4,1.1,0.6,1.7
							c0.2,0.5,0.3,1,0.4,1.4c0.3,0.9,0.4,1.6,0.5,2C190.2,125.2,190.2,125.5,190.2,125.5z"/>
						<path class="st1" d="M132.1,115.2c0.2,0.3,0.3,0.6,0.5,0.9c0.1,0.1,0.2,0.3,0.3,0.4c0.1,0.1,0.2,0.3,0.4,0.4
							c0.1,0.1,0.2,0.2,0.4,0.3l0.4,0.3l0.4,0.3c0.1,0.1,0.3,0.1,0.4,0.2c0.1,0.1,0.3,0.1,0.5,0.2c0.2,0,0.3,0.1,0.5,0.1l0.5,0.1
							l0.5,0l0.2,0l0.2,0l0.5,0c0.2,0,0.3-0.1,0.5-0.1l0.5-0.1l3.2-0.6l-2.9,1.7c-0.2,0.1-0.4,0.3-0.6,0.5c-0.2,0.2-0.4,0.4-0.6,0.6
							c-0.4,0.4-0.7,0.9-1,1.4l-0.4,0.8c-0.1,0.3-0.2,0.5-0.4,0.8c-0.2,0.5-0.4,1.1-0.6,1.7c-0.2,0.6-0.3,1.2-0.5,1.7
							c-0.1,0.3-0.2,0.6-0.2,0.9c0,0.3-0.1,0.6-0.2,0.9c-0.1,0.6-0.2,1.2-0.3,1.8l-0.2,1.8c0,0.6-0.1,1.2-0.1,1.8
							c0,0.6-0.1,1.2-0.1,1.8c0,0.6,0,1.2,0,1.9l0,0.9c0,0.3,0,0.6,0,0.9l0.1,1.9c0,0.6,0,1.2,0.1,1.9c0.1,1.2,0.2,2.5,0.2,3.7
							c-0.3-1.2-0.6-2.4-0.9-3.7c-0.2-0.6-0.2-1.2-0.3-1.9l-0.3-1.9c-0.1-0.6-0.2-1.3-0.2-1.9c0-0.6-0.1-1.3-0.1-1.9
							c-0.1-0.6,0-1.3,0-1.9c0-0.6,0-1.3,0-1.9l0.2-1.9c0-0.6,0.2-1.3,0.3-1.9c0-0.3,0.1-0.6,0.2-0.9c0.1-0.3,0.2-0.6,0.2-0.9
							c0.2-0.6,0.3-1.3,0.5-1.9l0.3-0.9c0.1-0.3,0.3-0.6,0.4-0.9c0.2-0.3,0.3-0.6,0.4-0.9l0.5-0.8c0.4-0.5,0.8-1.1,1.3-1.6
							c0.2-0.3,0.5-0.5,0.8-0.7c0.3-0.2,0.5-0.4,0.9-0.6l0.4,1.2l-0.6,0.1c-0.2,0-0.4,0-0.6,0l-0.6,0l-0.3,0l-0.3,0l-0.6-0.1
							l-0.5-0.2c-0.2,0-0.4-0.1-0.5-0.2c-0.2-0.1-0.3-0.2-0.5-0.3c-0.2-0.1-0.3-0.2-0.5-0.3l-0.4-0.4c-0.1-0.1-0.3-0.3-0.4-0.4
							c-0.1-0.1-0.2-0.3-0.3-0.4c-0.2-0.3-0.4-0.6-0.5-0.9C132.3,115.9,132.2,115.6,132.1,115.2z"/>
						<path class="st15" d="M149.9,195.1c0,0-12.4,4.5-6.4,19.9c0,0,1.4-16.3,21.2,1.8c0,0,1.3-13.7-6.3-16.7
							C158.5,200.1,149.9,198.9,149.9,195.1z"/>
						<path class="st15" d="M179.5,195.1c0,0,11.2,4.2,5,18.1c0,0-6.2-14.3-19.7,3.7c0,0-1.9-15.1,6.2-16.7
							C170.9,200.1,179.5,198.9,179.5,195.1z"/>
					</g>
				</g>
				<g>
					<path class="st16" d="M217.5,144.7c0,1.5-1.2,2.7-2.7,2.7l0,0c-1.5,0-2.7-1.2-2.7-2.7l0,0c0-1.5,1.2-2.7,2.7-2.7l0,0
						C216.4,142,217.5,143.2,217.5,144.7L217.5,144.7z"/>
					<g>
						<path class="st17" d="M193.6,137c0-3.8,3.1-6.8,6.8-6.8l0,0c3.8,0,6.8,3,6.8,6.8v15.3c0,3.8-3.1,6.8-6.8,6.8l0,0
							c-3.8,0-6.8-3-6.8-6.8V137z"/>
						<path class="st1" d="M201.8,137.4c3,3.7,3.4,7.9,2.5,12.4c-0.7,3.8-3.6,7.7-7.6,8.3c1.1,0.7,2.3,1.1,3.7,1.1
							c3.8,0,6.8-3,6.8-6.8V137c0-3.8-3.1-6.8-6.8-6.8c-3,0-5.5,1.9-6.4,4.5C196.9,134.3,199.9,135,201.8,137.4z"/>
						<path class="st9" d="M196,137c0-0.4,0.3-0.7,0.7-0.7l0,0c0.4,0,0.7,0.3,0.7,0.7v17.3c0,0.4-0.3,0.7-0.7,0.7l0,0
							c-0.4,0-0.7-0.3-0.7-0.7V137z"/>
					</g>
					<g>
						<path class="st11" d="M206.3,134.3v20.9c4.6-1.3,8-5.5,8-10.4C214.3,139.7,210.9,135.5,206.3,134.3z"/>
						<path class="st8" d="M211.1,148.7c-3.5-2.2-4.4-5.4-4.7-9.2v15.6c3-0.8,5.4-2.9,6.8-5.5C212.4,149.4,211.7,149.1,211.1,148.7z
							"/>
					</g>
					<path class="st18" d="M209.7,150.4c0,0,3.9,35.8-33.7,34.7"/>
					<path class="st19" d="M177.4,185.2c0,1.7-1.4,3.1-3.1,3.1H170c-1.7,0-3.1-1.4-3.1-3.1l0,0c0-1.7,1.4-3.1,3.1-3.1h4.2
						C176,182.1,177.4,183.5,177.4,185.2L177.4,185.2z"/>
					<path class="st16" d="M110,144.7c0,1.5,1.2,2.7,2.7,2.7l0,0c1.5,0,2.7-1.2,2.7-2.7l0,0c0-1.5-1.2-2.7-2.7-2.7l0,0
						C111.2,142,110,143.2,110,144.7L110,144.7z"/>
					<g>
						<path class="st17" d="M134,137c0-3.8-3.1-6.8-6.8-6.8l0,0c-3.8,0-6.8,3-6.8,6.8v15.3c0,3.8,3.1,6.8,6.8,6.8l0,0
							c3.8,0,6.8-3,6.8-6.8V137z"/>
						<path class="st1" d="M125.8,137.4c-3,3.7-3.4,7.9-2.5,12.4c0.7,3.8,3.6,7.7,7.6,8.3c-1.1,0.7-2.3,1.1-3.7,1.1
							c-3.8,0-6.8-3-6.8-6.8V137c0-3.8,3.1-6.8,6.8-6.8c3,0,5.5,1.9,6.4,4.5C130.7,134.3,127.7,135,125.8,137.4z"/>
						<path class="st9" d="M131.6,137c0-0.4-0.3-0.7-0.7-0.7l0,0c-0.4,0-0.7,0.3-0.7,0.7v17.3c0,0.4,0.3,0.7,0.7,0.7l0,0
							c0.4,0,0.7-0.3,0.7-0.7V137z"/>
					</g>
					<g>
						<path class="st11" d="M121.2,134.3v20.9c-4.6-1.3-8-5.5-8-10.4C113.3,139.7,116.6,135.5,121.2,134.3z"/>
						<path class="st8" d="M116.5,148.7c3.5-2.2,4.4-5.4,4.7-9.2v15.6c-3-0.8-5.4-2.9-6.8-5.5C115.2,149.4,115.9,149.1,116.5,148.7z
							"/>
					</g>
				</g>
			</g>
		</g>
	</g>
	<g>
		<g>
			<g>
				<path class="st20" d="M267.2,128L267.2,128c12.7,4.1,21.8,18.8,21.8,32.9c0,17.5-14.2,31.6-31.6,31.6
					c-16.9,0-30.7-13.2-31.6-29.9c0,0.6,0,1.3,0,1.9c0,20.3,16.5,36.8,36.8,36.8c20.3,0,36.8-16.5,36.8-36.8
					C299.3,145.8,285.3,130.3,267.2,128z"/>
				<path class="st1" d="M267.2,128L267.2,128c15.4,2.8,27.1,18.2,27.1,34.4c0,18.2-14.8,33-33,33c-8.6,0-16.4-3.3-22.3-8.7
					c-7.7-5.4-12.8-14.2-13.3-24.1c0,0.6,0,1.3,0,1.9c0,20.3,16.5,36.8,36.8,36.8c20.3,0,36.8-16.5,36.8-36.8
					C299.3,145.8,285.3,130.3,267.2,128z"/>
				<polygon class="st20" points="235.7,170 225,158.3 217,172 225.9,166.4 				"/>
			</g>
			<g>
				<path class="st20" d="M258,135.9v-3.4c-0.2,0-0.3,0-0.5,0c-0.2,0-0.3,0-0.5,0v3.4H258z"/>
				<path class="st20" d="M257.1,184.4v3.4c0.2,0,0.3,0,0.5,0c0.2,0,0.3,0,0.5,0v-3.4H257.1z"/>
				<path class="st20" d="M281.8,160.6h3.4c0-0.2,0-0.3,0-0.5c0-0.1,0-0.3,0-0.4h-3.4V160.6z"/>
				<path class="st20" d="M233.4,159.7H230c0,0.1,0,0.3,0,0.4c0,0.2,0,0.3,0,0.5h3.4V159.7z"/>
				<path class="st20" d="M270.1,180.9l1.8,2.8c0.3-0.2,0.5-0.3,0.8-0.5l-1.8-2.8L270.1,180.9z"/>
				<path class="st20" d="M245,139.4l-1.8-2.9c-0.3,0.2-0.5,0.3-0.8,0.5l1.8,2.9L245,139.4z"/>
				<path class="st20" d="M237,147.3l-2.9-1.7c-0.2,0.3-0.3,0.5-0.5,0.8l2.9,1.8L237,147.3z"/>
				<path class="st20" d="M278.1,173l2.9,1.7c0.2-0.3,0.3-0.5,0.5-0.8l-2.9-1.7L278.1,173z"/>
				<path class="st20" d="M270.6,139.8l1.8-2.9c-0.3-0.2-0.5-0.3-0.8-0.5l-1.8,2.9L270.6,139.8z"/>
				<path class="st20" d="M244.5,180.5l-1.8,2.9c0.3,0.2,0.5,0.3,0.8,0.5l1.8-2.9L244.5,180.5z"/>
				<path class="st20" d="M278.6,148.1l2.9-1.8c-0.2-0.3-0.3-0.6-0.5-0.8l-2.9,1.8L278.6,148.1z"/>
				<path class="st20" d="M236.6,172.2l-2.9,1.7c0.2,0.3,0.3,0.6,0.5,0.8l2.9-1.7L236.6,172.2z"/>
			</g>
			<g>
				<path d="M240.9,167c0-2.6,0.6-4.3,4.2-6.9c2-1.4,2.6-2.1,2.6-3.3c0-1.4-0.9-1.8-1.9-1.8c-1.2,0-2,0.6-2,2.5h-2.6
					c0-3,1.7-4.8,4.5-4.8c2.8,0,4.7,1.3,4.7,4c0,2.1-1,3.3-4,5.4c-1.1,0.8-1.9,1.8-1.9,2.5h6v2.4H240.9z"/>
				<path d="M255.9,167v-3h-5.4v-2.4l5-8.5h3v8.7h1.6v2.1h-1.6v3H255.9z M256,157l-2.8,4.9h2.8V157z"/>
				<path d="M260.2,167l4-13.8h2.3l-4,13.8H260.2z"/>
				<path d="M268.4,167c0.3-4,1.9-8.1,4.9-11.4h-6.8v-2.4h9.7v2.1c-3.1,3.4-4.8,7.6-5,11.8H268.4z"/>
			</g>
		</g>
		<g>
			<g>
				<path class="st21" d="M219.9,146.9c0,0-1.5,6.4,4.5,11.3l6.8-4.3l1.1-0.7l6.8-4.3c-1.9-7.6-8.2-8.9-8.2-8.9s-8.1-1.1,8.4-10.2
					l-3.4-5.5C235.7,124.4,221.7,132.9,219.9,146.9z"/>
				<path class="st1" d="M236.2,146.6c-1.6,1.8-3.6,3.3-5.9,4.1c-2.2,0.8-3.9,0.9-6,0.2c-1.3-0.4-4.9-2.1-4.4-4
					c0,0-1.5,6.4,4.5,11.3l14.6-9.2c-0.4-1.6-1-2.9-1.6-4C237,145.6,236.6,146.2,236.2,146.6z"/>
				<g>
					<path class="st22" d="M222.8,156.9c0,0.1,0.1,0.2,0.1,0.3l0.6,0.9c0.5,0.7,1.5,1,2.2,0.5l13.1-8.2c0.7-0.5,1-1.5,0.5-2.2
						l-0.6-0.9c-0.1-0.1-0.1-0.2-0.2-0.3L222.8,156.9z"/>
					<path class="st1" d="M231.6,153.7c-1.4,0.6-3,1.2-4.6,1.2c-0.3,0-0.5,0-0.8-0.1l-3.5,2.2c0,0.1,0.1,0.2,0.1,0.3l0.6,0.9
						c0.5,0.7,1.5,1,2.2,0.5l13.1-8.2c0.8-0.5,1-1.5,0.5-2.2l-0.4-0.7c-0.6,1-1.4,1.9-2.2,2.8C235.1,151.8,233.5,152.9,231.6,153.7z
						"/>
				</g>
				<path class="st0" d="M222.9,156.8l15.5-9.7c-0.1-0.2-0.2-0.5-0.3-0.7l-15.7,9.8C222.5,156.5,222.7,156.7,222.9,156.8z"/>
				<path class="st0" d="M230,141.5l-2.5,1.6c2,0.8,4.5,2.3,5.9,4.6c1.5-1.2,2-2.6,2-2.6C234,142.3,230,141.5,230,141.5z"/>
			</g>
			<g>
				<path class="st21" d="M263.5,119.5c0,0,6.4,1.4,8.2,8.9l-6.8,4.3l-1.1,0.7l-6.8,4.3c-6-5-4.5-11.3-4.5-11.3s1.6-7.2-13.8,3.7
					l-3.4-5.5C235.5,124.5,250.1,115,263.5,119.5z"/>
				<path class="st1" d="M256.2,134c2.3-0.7,4.5-1.8,6.3-3.5c1.7-1.6,2.5-3.1,2.8-5.3c0.2-1.3,0.3-5.3-1.7-5.7c0,0,6.4,1.4,8.2,8.9
					l-14.6,9.2c-1.3-1-2.2-2.1-2.9-3.2C255,134.3,255.6,134.2,256.2,134z"/>
				<g>
					<path class="st22" d="M271.3,126.4c0.1,0.1,0.1,0.2,0.2,0.3l0.6,0.9c0.5,0.8,0.2,1.7-0.5,2.2l-13.1,8.2
						c-0.8,0.5-1.7,0.2-2.2-0.5l-0.6-0.9c-0.1-0.1-0.1-0.2-0.1-0.3L271.3,126.4z"/>
					<path class="st1" d="M264.5,132.9c1.1-1,2.4-2.2,3-3.6c0.1-0.2,0.2-0.5,0.3-0.8l3.5-2.2c0.1,0.1,0.1,0.2,0.2,0.3l0.6,0.9
						c0.5,0.8,0.2,1.7-0.5,2.2l-13.1,8.2c-0.7,0.5-1.7,0.2-2.2-0.5l-0.4-0.7c1.2-0.1,2.3-0.4,3.4-0.8
						C261.3,135.3,263,134.3,264.5,132.9z"/>
				</g>
				<path class="st0" d="M271.2,126.5l-15.5,9.7c-0.2-0.2-0.3-0.4-0.5-0.6l15.7-9.8C271,126,271.1,126.2,271.2,126.5z"/>
				<path class="st0" d="M254.3,126.3l2.5-1.6c-0.1,2.1,0.1,5,1.6,7.4c-1.8,0.8-3.2,0.7-3.2,0.7
					C253.3,130.2,254.3,126.3,254.3,126.3z"/>
			</g>
		</g>
	</g>
	<ellipse class="st1" cx="315.1" cy="343.3" rx="83.4" ry="15.8"/>
	<g>
		<g>
			<path class="st23" d="M369.3,300.5c0,0.1-3.8,4.2-2.4,4.5c0.6,0.1,2.7-7.4,3.6-7.3c0.7,0.1,0.5,7.9,1.3,8c0.7,0.1,2.2-7.6,3-7.5
				c0.7,0.1,1.1,7.8,1.9,7.9c0.8,0,1.6-7.7,2.4-7.7c0.8,0,1.7,7.7,2.5,7.7c0.8,0,1-7.8,1.8-7.9c0.8-0.1,2.3,7.6,3.1,7.5
				c0.8-0.1,0.4-7.9,1.2-8c0.8-0.1,3,7.3,3.8,7.2c0.8-0.2-0.4-7.9,0.4-8.1c0.7-0.2,3.8,7,4.5,6.7c0.7-0.3-1.3-7.8-0.6-8.1
				c0.7-0.3,4.6,6.4,5.3,6.1c0.7-0.3-2.3-7.5-1.7-7.9c0.7-0.4,5.5,5.7,6.2,5.3c0.6-0.4-3.5-7.1-2.8-7.6c0.6-0.5,6.4,4.7,6.9,4.2
				c0.5-0.5-4.6-6.4-4.1-7c0.5-0.6,7.1,3.6,7.5,3c0.4-0.6-5.6-5.6-5.2-6.2c0.4-0.7,7.5,2.4,7.9,1.7c0.3-0.7-6.4-4.6-6.1-5.3
				c0.3-0.7,7.8,1.3,8.1,0.5c0.2-0.7-7-3.7-6.8-4.5c0.2-0.7,7.9,0.3,8.1-0.5c0.2-0.7-7.3-3-7.2-3.8c0.3-1.4,7.9,0.3,8.1-1.5
				c0.1-0.8-7.4-2.9-7.3-3.9c0.1-0.9,7.9-0.9,8-1.9c0.1-0.9-7.5-2.6-7.5-3.6c0.1-0.9,7.9-1.3,7.9-2.3c0.1-0.9-7.7-2.2-7.6-3.2
				c0-0.9,7.8-1.7,7.8-2.7c0-0.9-7.8-1.8-7.8-2.7c0-0.9,7.7-2.2,7.6-3.2c-0.1-0.9-7.9-1.2-8-2.2c-0.1-0.9,7.5-2.8,7.3-3.8
				c-0.1-0.9-7.9-0.6-8.1-1.5c-0.2-0.9,7.2-3.5,7-4.5c-0.2-0.9-7.9,0.3-8.2-0.6c-0.3-0.9,6.7-4.4,6.4-5.3c-0.3-0.9-7.8,1.4-8.2,0.6
				c-0.4-0.9,5.9-5.4,5.4-6.2c-0.5-0.8-7.4,2.8-8,2.1c-0.6-0.8,4.7-6.5,4-7.2c-0.7-0.7-6.6,4.4-7.3,3.8c-0.7-0.6,3-7.5,2.1-8
				c-0.8-0.5-5.3,5.9-6.1,5.5c-0.8-0.4,1.1-7.9,0.1-8.2c-0.9-0.3-3.7,7-4.7,6.8c-0.9-0.2-0.6-8-1.6-8.1c-0.9-0.1-2.4,7.6-3.3,7.5
				c-0.9,0-1.9-7.8-2.9-7.7c-0.9,0-1.3,7.8-2.2,8"/>
		</g>
		<g>
			<g>
				<g>
					<path class="st24" d="M239.2,218.9c0,0-13.5,13.1-6.4,34.5h23.1h3.6h23.1c7.1-21.3-6.4-34.5-6.4-34.5s-18-15,36.1-12.1v-18.6
						C312.2,188.1,265.1,187.4,239.2,218.9z"/>
					<path class="st1" d="M279.3,243.1c-6.6,1.9-13.9,2.4-20.6,1c-6.7-1.4-10.8-3.8-14.9-8.7c-2.5-3-8.8-12.6-4.6-16.6
						c0,0-13.5,13.1-6.4,34.5h49.7c1.5-4.4,2.1-8.5,2.1-12.2C282.8,242,281.1,242.6,279.3,243.1z"/>
					<g>
						<path class="st25" d="M230.9,247.7c-0.1,0.3-0.1,0.6-0.1,0.9v3.1c0,2.6,2.1,4.6,4.6,4.6h44.5c2.6,0,4.6-2.1,4.6-4.6v-3.1
							c0-0.3,0-0.6-0.1-0.9H230.9z"/>
						<path class="st1" d="M257.4,253.3c-4.3-0.7-9.2-1.7-12.9-4.1c-0.6-0.4-1.3-0.9-1.9-1.5h-11.8c-0.1,0.3-0.1,0.6-0.1,0.9v3.1
							c0,2.6,2.1,4.6,4.6,4.6h44.5c2.5,0,4.6-2.1,4.6-4.6v-2.3c-3,1.7-6.3,2.5-9.6,3.3C268.9,254.2,263.3,254.3,257.4,253.3z"/>
					</g>
					<path class="st0" d="M231.3,247.7h52.6c0.1-0.7,0.2-1.4,0.3-2.1H231C231.1,246.2,231.2,246.9,231.3,247.7z"/>
					<path class="st0" d="M272.2,221.3h-8.5c3.6,5,7.5,12.4,7.4,20.4c5.5-0.8,8.9-3.1,8.9-3.1C280.7,229.4,272.2,221.3,272.2,221.3z
						"/>
				</g>
				<g>
					<path class="st24" d="M387.7,218.9c0,0,13.5,13.1,6.4,34.5H371h-3.6h-23.1c-7.1-21.3,6.4-34.5,6.4-34.5s15-15-39.2-12.1v-18.6
						C311.6,188.1,361.8,187.4,387.7,218.9z"/>
					<path class="st1" d="M347.5,243.1c6.6,1.9,13.9,2.4,20.6,1c6.7-1.4,10.8-3.8,14.9-8.7c2.5-3,8.8-12.6,4.6-16.6
						c0,0,13.5,13.1,6.4,34.5h-49.7c-1.5-4.4-2.1-8.5-2.1-12.2C344,242,345.8,242.6,347.5,243.1z"/>
					<g>
						<path class="st25" d="M395.9,247.7c0.1,0.3,0.1,0.6,0.1,0.9v3.1c0,2.6-2.1,4.6-4.6,4.6h-44.5c-2.5,0-4.6-2.1-4.6-4.6v-3.1
							c0-0.3,0-0.6,0.1-0.9H395.9z"/>
						<path class="st1" d="M369.5,253.3c4.3-0.7,9.2-1.7,12.9-4.1c0.6-0.4,1.3-0.9,1.9-1.5H396c0.1,0.3,0.1,0.6,0.1,0.9v3.1
							c0,2.6-2.1,4.6-4.6,4.6H347c-2.5,0-4.6-2.1-4.6-4.6v-2.3c3,1.7,6.3,2.5,9.6,3.3C357.9,254.2,363.5,254.3,369.5,253.3z"/>
					</g>
					<path class="st0" d="M395.5,247.7h-52.6c-0.1-0.7-0.2-1.4-0.3-2.1h53.3C395.8,246.2,395.7,246.9,395.5,247.7z"/>
					<path class="st0" d="M354.7,221.3h8.5c-3.6,5-7.5,12.4-7.4,20.4c-5.5-0.8-8.9-3.1-8.9-3.1C346.1,229.4,354.7,221.3,354.7,221.3
						z"/>
				</g>
			</g>
			<g>
				<path class="st25" d="M372.4,331c0,5.1-3.5,9.2-7.8,9.2H262.2c-4.3,0-7.8-4.1-7.8-9.2V320c0-5.1,3.5-9.2,7.8-9.2h102.4
					c4.3,0,7.8,4.1,7.8,9.2V331z"/>
				<path class="st1" d="M355.6,334.1c-13.7,3.3-27.9,4.6-41.9,4c-7.6-0.3-15.1-1.2-22.6-2.5c-5.5-1-11.3-2.7-15.8-6.1
					c-4.9-3.7-8.5-8.6-8.7-15c0-1.2,0-2.4,0.2-3.7h-4.5c-4.3,0-7.8,4.1-7.8,9.2V331c0,5.1,3.5,9.2,7.8,9.2h102.4
					c4.3,0,7.8-4.1,7.8-9.2v-3.5C367.3,330.6,361.6,332.7,355.6,334.1z"/>
				<path class="st24" d="M358.6,240.3c0-2.7-1.5-5-3.7-6.3h-84.1c-1.9,1.4-3.1,3.5-3.1,5.9l-13.3,72.8c0,4.1,3.5,7.4,7.8,7.4h102.4
					c4.3,0,7.8-3.3,7.8-7.4L358.6,240.3z"/>
				<path class="st26" d="M316.4,246.4c-16.6,0-30,13.4-30,30c0,16.6,13.4,30,30,30c16.5,0,30-13.4,30-30
					C346.4,259.8,332.9,246.4,316.4,246.4z M316.4,292.8c-9.1,0-16.4-7.3-16.4-16.4c0-9.1,7.3-16.4,16.4-16.4
					c9.1,0,16.4,7.3,16.4,16.4C332.8,285.5,325.5,292.8,316.4,292.8z"/>
				<g>
					<path class="st8" d="M297.2,285.4c0,2.2-1.7,3.9-3.9,3.9c-2.2,0-3.9-1.7-3.9-3.9c0-2.2,1.7-3.9,3.9-3.9
						C295.5,281.5,297.2,283.2,297.2,285.4z"/>
					<path class="st8" d="M294.1,281.5c-0.2,0-0.5-0.1-0.7-0.1c-2.2,0-3.9,1.7-3.9,3.9c0,2.2,1.7,3.9,3.9,3.9c0.7,0,1.3-0.2,1.8-0.5
						C292.7,287.4,292.3,283.6,294.1,281.5z"/>
				</g>
				<path class="st0" d="M313.4,244.8c-16.5,0-30,13.4-30,30s13.4,30,30,30s30-13.4,30-30S330,244.8,313.4,244.8z M313.4,291.2
					c-9.1,0-16.4-7.3-16.4-16.4c0-9.1,7.3-16.4,16.4-16.4c9.1,0,16.4,7.3,16.4,16.4C329.8,283.8,322.5,291.2,313.4,291.2z"/>
				<g>
					<path class="st8" d="M339.7,270c0,2.2-1.7,3.9-3.9,3.9c-2.2,0-3.9-1.8-3.9-3.9c0-2.2,1.7-3.9,3.9-3.9
						C338,266.1,339.7,267.9,339.7,270z"/>
					<path class="st8" d="M336.1,269.2v-0.2c0-1,0.3-2,0.9-2.7c-0.4-0.1-0.8-0.2-1.2-0.2c-2.2,0-3.9,1.8-3.9,3.9
						c0,2.2,1.7,3.9,3.9,3.9c0.9,0,1.7-0.3,2.4-0.8C336.9,272.3,336.1,270.8,336.1,269.2z"/>
				</g>
				<g>
					<path class="st8" d="M334.8,260.1c0,2.2-1.7,3.9-3.9,3.9c-2.2,0-3.9-1.7-3.9-3.9c0-2.2,1.7-3.9,3.9-3.9
						C333.1,256.2,334.8,258,334.8,260.1z"/>
					<path class="st8" d="M331.7,256.3c-0.2,0-0.5-0.1-0.8-0.1c-2.2,0-3.9,1.7-3.9,3.9c0,2.2,1.7,3.9,3.9,3.9c0.7,0,1.3-0.2,1.8-0.5
						C330.3,262.1,329.9,258.4,331.7,256.3z"/>
				</g>
				<g>
					<path class="st8" d="M315.1,252.3c0,2.2-1.7,3.9-3.9,3.9c-2.2,0-3.9-1.7-3.9-3.9c0-2.2,1.8-3.9,3.9-3.9
						C313.4,248.4,315.1,250.1,315.1,252.3z"/>
					<path class="st8" d="M312,248.5c-0.2,0-0.5-0.1-0.7-0.1c-2.2,0-3.9,1.7-3.9,3.9c0,2.2,1.8,3.9,3.9,3.9c0.7,0,1.3-0.2,1.8-0.5
						C310.6,254.3,310.2,250.6,312,248.5z"/>
				</g>
				<g>
					<path class="st8" d="M327,253.4c0,2.2-1.8,3.9-3.9,3.9c-2.2,0-3.9-1.7-3.9-3.9c0-2.2,1.7-3.9,3.9-3.9
						C325.3,249.5,327,251.3,327,253.4z"/>
					<path class="st8" d="M323.8,249.6c-0.2,0-0.5-0.1-0.8-0.1c-2.2,0-3.9,1.8-3.9,3.9c0,2.2,1.7,3.9,3.9,3.9c0.7,0,1.3-0.2,1.8-0.5
						C322.4,255.4,322.1,251.7,323.8,249.6z"/>
				</g>
				<g>
					<path class="st8" d="M305,256.2c0,2.2-1.8,3.9-3.9,3.9c-2.2,0-3.9-1.7-3.9-3.9c0-2.2,1.7-3.9,3.9-3.9
						C303.3,252.3,305,254,305,256.2z"/>
					<path class="st8" d="M301.9,252.4c-0.2,0-0.5-0.1-0.7-0.1c-2.2,0-3.9,1.7-3.9,3.9c0,2.2,1.7,3.9,3.9,3.9c0.7,0,1.3-0.2,1.8-0.5
						C300.5,258.2,300.1,254.5,301.9,252.4z"/>
				</g>
				<g>
					<path class="st8" d="M297.2,264c0,2.2-1.7,3.9-3.9,3.9c-2.2,0-3.9-1.7-3.9-3.9c0-2.2,1.7-3.9,3.9-3.9
						C295.5,260.1,297.2,261.9,297.2,264z"/>
					<path class="st8" d="M294.1,260.2c-0.2,0-0.5-0.1-0.7-0.1c-2.2,0-3.9,1.7-3.9,3.9c0,2.2,1.7,3.9,3.9,3.9c0.7,0,1.3-0.2,1.8-0.5
						C292.7,266,292.3,262.3,294.1,260.2z"/>
				</g>
				<g>
					<path class="st8" d="M294.2,274.8c0,2.2-1.8,3.9-3.9,3.9c-2.2,0-3.9-1.8-3.9-3.9c0-2.2,1.8-3.9,3.9-3.9
						C292.5,270.9,294.2,272.6,294.2,274.8z"/>
					<path class="st8" d="M291.1,270.9c-0.2,0-0.5-0.1-0.8-0.1c-2.2,0-3.9,1.7-3.9,3.9c0,2.2,1.8,3.9,3.9,3.9c0.7,0,1.3-0.2,1.8-0.5
						C289.7,276.8,289.3,273,291.1,270.9z"/>
				</g>
				<g>
					<path class="st8" d="M297.2,285.4c0,2.2-1.7,3.9-3.9,3.9c-2.2,0-3.9-1.7-3.9-3.9c0-2.2,1.7-3.9,3.9-3.9
						C295.5,281.5,297.2,283.2,297.2,285.4z"/>
					<path class="st8" d="M294.1,281.5c-0.2,0-0.5-0.1-0.7-0.1c-2.2,0-3.9,1.7-3.9,3.9c0,2.2,1.7,3.9,3.9,3.9c0.7,0,1.3-0.2,1.8-0.5
						C292.7,287.4,292.3,283.6,294.1,281.5z"/>
				</g>
				<g>
					<path class="st8" d="M304,293.2c0,2.2-1.8,3.9-3.9,3.9s-3.9-1.7-3.9-3.9c0-2.2,1.7-3.9,3.9-3.9S304,291,304,293.2z"/>
					<path class="st8" d="M300.8,289.3c-0.2,0-0.5-0.1-0.8-0.1c-2.2,0-3.9,1.7-3.9,3.9c0,2.2,1.7,3.9,3.9,3.9c0.7,0,1.3-0.2,1.8-0.5
						C299.4,295.2,299.1,291.5,300.8,289.3z"/>
				</g>
				<g>
					<path class="st8" d="M315.1,298.5c0,2.2-1.7,3.9-3.9,3.9c-2.2,0-3.9-1.8-3.9-3.9c0-2.2,1.8-3.9,3.9-3.9
						C313.4,294.6,315.1,296.3,315.1,298.5z"/>
					<path class="st8" d="M312,294.6c-0.2,0-0.5-0.1-0.7-0.1c-2.2,0-3.9,1.7-3.9,3.9c0,2.2,1.8,3.9,3.9,3.9c0.7,0,1.3-0.2,1.8-0.5
						C310.6,300.5,310.2,296.7,312,294.6z"/>
				</g>
				<g>
					<polygon class="st26" points="324.9,289.3 331.9,306.4 341.2,297.8 					"/>
					<path class="st26" d="M325.7,289.7l-0.8-0.4l7,17.1l6.5-6C332.8,299.3,327,295,325.7,289.7z"/>
				</g>
				<path class="st24" d="M331.1,217.8c1.7,3.6-1,8.1-1,8.1h-10.5h-12.2h-10.5c0,0-2.7-4.5-1-8.1h-11c0,0-2.3,11.9,3.6,16.2h19h12.2
					h19c5.9-4.3,3.6-16.2,3.6-16.2H331.1z"/>
				<path class="st1" d="M342.1,217.8h-4.9c0.3,3,0.3,10.2-3.2,12.7h-15.6h-10h-15.6c-3.5-2.5-3.5-9.7-3.2-12.7h-4.9
					c0,0-2.3,11.9,3.6,16.2h19h12.2h19C344.4,229.7,342.1,217.8,342.1,217.8z"/>
				<path class="st0" d="M332.5,228.8c0,0.4-0.3,0.7-0.7,0.7H295c-0.4,0-0.7-0.3-0.7-0.7l0,0c0-0.4,0.3-0.6,0.7-0.6h36.8
					C332.2,228.2,332.5,228.5,332.5,228.8L332.5,228.8z"/>
			</g>
		</g>
	</g>
</g>
</svg>
