<svg width="450" height="455" xmlns="http://www.w3.org/2000/svg" xmlns:xlink="http://www.w3.org/1999/xlink">
    <defs>
        <path d="M194.234 1.896C97.118 14.583 49.337 93.691 40.291 107.945c-49.453 77.922-59.38 195.965 4.374 270.89 42.14 49.524 100.428 61.355 130.581 67.475 8.292 1.684 29.05 5.482 56.23 5.5h.453c39.709-.033 92.974-8.158 141.019-42.608 6.907-4.952 15.65-11.221 24.892-20.943 32.994-34.713 52.088-92.171 52.16-152.363v-.693c-.079-67.348-23.98-138.005-78.867-183.96C329.656 16.516 274.982 0 223.82 0c-10.036 0-19.947.637-29.586 1.896" id="a"/>
        <path d="M22.636 0c-.237 0-.823.07-1.138.712l-5.11 10.421a5.146 5.146 0 0 1-3.871 2.831L1.09 15.635c-.706.104-.952.642-1.026.87a1.25 1.25 0 0 0 .322 1.309l8.268 8.111a5.197 5.197 0 0 1 1.48 4.581L8.181 41.96c-.082.486.1.828.268 1.028.248.295.615.473.982.473.199 0 .398-.052.591-.154l10.22-5.408a5.138 5.138 0 0 1 2.393-.595c.83 0 1.658.206 2.393.595l10.22 5.408c.192.102.391.154.59.154.368 0 .735-.178.982-.473.169-.2.352-.542.27-1.028l-1.953-11.454a5.198 5.198 0 0 1 1.479-4.58l8.268-8.112c.51-.5.394-1.083.321-1.31a1.24 1.24 0 0 0-1.024-.869l-11.426-1.671a5.144 5.144 0 0 1-3.872-2.831L23.774.712A1.235 1.235 0 0 0 22.636 0z" id="c"/>
        <path d="m14.6.314-4.157 5.638a3.136 3.136 0 0 1-2.618 1.27L.8 7.011a.755.755 0 0 0-.706.408.746.746 0 0 0 .056.809l4.104 5.676c.602.832.754 1.905.406 2.87l-2.373 6.581c-.1.28-.027.5.052.638.118.201.32.344.54.383a.77.77 0 0 0 .37-.03l6.695-2.13a3.153 3.153 0 0 1 2.87.503v.001L18.37 27c.105.08.219.132.339.153a.798.798 0 0 0 .638-.177.731.731 0 0 0 .268-.58l.033-6.992a3.107 3.107 0 0 1 1.368-2.56l5.808-3.936c.358-.243.35-.6.33-.742a.75.75 0 0 0-.523-.624l-6.674-2.19a3.119 3.119 0 0 1-2.024-2.086L15.965.553a.75.75 0 0 0-.607-.54.852.852 0 0 0-.143-.013.739.739 0 0 0-.614.314" id="f"/>
        <path d="M27.081 7.698.151 127.09c-.75 3.319 1.376 6.606 4.714 7.293l94.344 19.408c3.552.731 7.006-1.62 7.622-5.188l20.707-119.986c.787-4.56-2.144-8.936-6.667-9.952L38.89.243A9.936 9.936 0 0 0 36.713 0c-4.518 0-8.596 3.114-9.63 7.698" id="i"/>
        <path d="M11.709.225 5.042 9.586a.482.482 0 0 1-.848-.122l-1.238-3.68a1.5 1.5 0 0 0-1.918-.922 1.537 1.537 0 0 0-.994 1.816c1.31 5.303 3.904 6.903 3.904 6.903C10.004 9.555 12.007 3.76 12.663.635c.079-.37-.22-.635-.528-.635a.516.516 0 0 0-.426.225" id="l"/>
        <path d="M11.709.225 5.043 9.587a.483.483 0 0 1-.848-.122l-1.239-3.68a1.498 1.498 0 0 0-1.917-.922 1.537 1.537 0 0 0-.995 1.816c1.31 5.303 3.904 6.902 3.904 6.902C10.004 9.555 12.006 3.76 12.664.635c.077-.37-.222-.635-.53-.635a.514.514 0 0 0-.425.225" id="o"/>
        <path d="M11.709.225 5.042 9.587a.483.483 0 0 1-.848-.123l-1.238-3.68a1.5 1.5 0 0 0-1.918-.922 1.538 1.538 0 0 0-.994 1.816c1.31 5.303 3.904 6.903 3.904 6.903C10.004 9.554 12.006 3.76 12.664.635c.077-.37-.222-.635-.53-.635a.514.514 0 0 0-.425.225" id="r"/>
        <path d="M11.709.225 5.043 9.586a.483.483 0 0 1-.849-.122l-1.238-3.68a1.5 1.5 0 0 0-1.918-.923 1.538 1.538 0 0 0-.993 1.817c1.308 5.303 3.903 6.903 3.903 6.903C10.004 9.554 12.006 3.76 12.664.635c.077-.37-.222-.635-.53-.635a.514.514 0 0 0-.425.225" id="u"/>
        <path d="M4.676.015c-1.812.117-3.28 1.44-3.512 3.139l-1.016 7.45L0 11.641l9.332 2.845s.58-.474 1.309-1.278c1.905-2.078 4.849-6.365 1.217-10.13C9.517.648 7.1 0 5.189 0c-.175 0-.347.005-.513.015m1.404 8.87c-1.314-.276-2.14-1.521-1.837-2.763.29-1.25 1.598-2.036 2.902-1.758 1.317.286 2.14 1.52 1.85 2.771-.258 1.078-1.257 1.808-2.37 1.808-.179 0-.362-.019-.545-.058" id="x"/>
        <path d="M.96 2.04 0 6.214l34.602 8.272.676-4.067c.214-1.293-.608-2.535-1.902-2.866L4.233.086A2.716 2.716 0 0 0 3.556 0C2.341 0 1.24.82.96 2.04" id="A"/>
        <path d="M11.455 0C5.13 0 0 5.134 0 11.467v217.607h114.085V11.467C114.085 5.134 108.956 0 102.63 0H11.455z" id="D"/>
        <path d="M11.455 0C5.129 0 0 5.134 0 11.467v217.607h114.085V11.467C114.085 5.134 108.957 0 102.63 0H11.455z" id="G"/>
        <path d="M11.464 0C5.133 0 0 5.114 0 11.424v80.93h84.205v-80.93C84.205 5.114 79.072 0 72.741 0H11.464z" id="J"/>
        <path d="M11.465 0C5.133 0 0 5.114 0 11.423v80.931h84.205v-80.93C84.205 5.114 79.072 0 72.741 0H11.465z" id="M"/>
        <path d="M.027 7.508a.892.892 0 0 0-.027.25c5.056.538 9.532.42 11.706.238.01-.032.02-.064.028-.098.243-1.195-.734-3.33-2.25-7.705L6.847 0S1.367 2.544.027 7.508" id="P"/>
        <path d="M.8 1.227c2.076.345 7.02 1.017 10.13.182.406-.108.723-.535.84-1.083C9.585.575 5.085.738 0 0c.007.61.342 1.15.8 1.227" id="R"/>
        <path d="m0 0 1.126 5.553c.083.406.388.711.758.747a7.39 7.39 0 0 0 1.744-.029c.581-.087.987-.692.883-1.341L3.729 0H0z" id="U"/>
        <path d="M.01 1.092c.009.4.238.72.519.719l15.142-.128c.483-.003.766-.73.557-1.305-1.986.213-7.042.689-11.305.534C2.164.812.738.39 0 0-.001.356 0 .718.009 1.092" id="X"/>
        <path d="M0 7.395c.74.312 2.173.65 4.943.73 4.282.123 9.36-.258 11.355-.428-.02-.04-.035-.08-.06-.118C14.893 5.64 11.473 1.78 4.713.106L1.47 0S.027 2.593 0 7.395" id="aa"/>
        <path d="M0 .729c.038.224.518 3.633.703 4.954a.705.705 0 0 0 .641.592c.595.061 1.558.117 2.4-.032.454-.08.783-.456.783-.893V0L0 .729z" id="ac"/>
        <path d="M.87 74.245s3.452 0 5.177-.57c0 0 5.381-44.674 7.121-57.457.066-.482.759-.503.854-.027 2.147 10.756 10.583 52.93 11.585 56.912 0 0 2.876 1.142 5.178 0 0 0-4.602-61.11-8.054-71.961L3.171 0S-2.006 45.689.87 74.245" id="af"/>
        <path d="M.075 1.232c-.57 5.7 2.286 17.673 2.286 17.673 2.858 4.561 8 35.347 8 35.347 6.287 3.42 19.43 1.14 19.43 1.14 3.429-10.832 8-35.347 8-35.347l1.143-17.673C32.076.547 24.488 0 17.85 0 7.894 0 .075 1.232.075 1.232" id="ai"/>
        <path d="M0 14.226s5.857 2.7 9.96-.116L9.077 4.07 2.097 0 0 14.226z" id="al"/>
        <path d="M31.685 47.082c.22-3.604-6.117-19.636-6.117-19.636C1.101 25.265 8.488 2.303 8.488 2.303L6.827 0c-24.514 33.9 24.857 47.082 24.857 47.082" id="ao"/>
        <path d="M2.92.06C-.54.587.035 6.936.035 6.936s.577 2.117 1.73 2.117 6.92-3.174 6.342-4.762C7.575 2.824 6.55 0 3.664 0c-.236 0-.484.019-.745.06" id="ar"/>
        <path d="M23.203 2.303s7.386 22.962-17.08 25.144c0 0-6.337 16.031-6.117 19.635 0 0 49.37-13.182 24.855-47.082l-1.658 2.303z" id="au"/>
        <path d="M.04 4.292C-.536 5.88 5.23 9.054 6.383 9.054c1.153 0 1.73-2.116 1.73-2.116S8.69.588 5.23.058A4.984 4.984 0 0 0 4.485 0C1.599 0 .573 2.825.04 4.292" id="ax"/>
        <path d="m0 3.356 3.618 9.765c5.177 2.967 11.107 3.23 11.72-.424C15.951 9.044 11.167 0 11.167 0L0 3.356z" id="aA"/>
        <path d="M14.376 1.896a.364.364 0 0 1-.58.004C13.166 1.072 11.506-.648 9.2.394c-2.158.976-2.4 2.569-2.371 3.372.009.236-.2.42-.431.376-1.09-.21-3.708-.39-4.93 2.316-1.005 2.23-.351 3.492.244 4.109.193.2.109.529-.156.61-.717.222-1.642.834-1.55 2.527.128 2.34 2.724 2.134 3.463 2.027a.367.367 0 0 1 .325.116c.634.707 3.489 3.708 6.578 4.07.267.032.475-.235.388-.491l-1.337-3.92a.37.37 0 0 1 .198-.458l.664-.297a.37.37 0 0 0 .16-.54c-.38-.581-1.087-1.77-1.314-2.81 0 0-.848-.546 2.16-1.272 3.006-.726 7.49-1.852 8.433-4.432C20.394 3.862 19.292 0 17.151 0c-.795 0-1.732.531-2.775 1.896" id="aD"/>
        <path d="M.013.903c-.238 2.254 2.94 3.265 4.514 2.425l-1.01-2.003S1.898 0 .857 0C.42 0 .083.235.013.903" id="aG"/>
        <path d="M11.465 0C5.133 0 0 5.146 0 11.494v124.32h96.881V11.495C96.881 5.146 91.748 0 85.416 0h-73.95z" id="aJ"/>
        <path d="M11.466 0C5.134 0 0 5.146 0 11.494v124.32h96.881V11.495C96.881 5.146 91.748 0 85.416 0h-73.95z" id="aM"/>
        <path d="M0 11.379c3.505 6.703 7.398 10.404 11.294 12.162.695-4.176 3.18-7.643 5.004-9.702C9.349 9.96 7.535 0 7.535 0L0 11.379z" id="aP"/>
        <path d="M4.937 1.983C3.137 3.982.687 7.347 0 11.4c12.215 5.429 24.447-8.235 24.447-8.235L21.83 0C14.22 4.351 8.782 4.096 4.937 1.983" id="aS"/>
        <path d="M3.76 2.076c-1.095-1.658-2.091-.53-2.091-.53-3.09 2.857-.942 6.576-.942 6.576 1.05 1.68 5.85 3.217 8.23-.23 2.354-3.41-.055-6.399-.964-7.605C7.84.084 7.62 0 7.359 0c-1.296 0-3.6 2.076-3.6 2.076" id="aV"/>
        <path d="M1.93.024c-.316.084-.492.368-.392.635l.723 1.934c-.265.03-.561.029-.762-.074-.062-.03-.248-.125-.305-.505-.042-.277-.336-.472-.67-.438-.328.035-.56.29-.52.566.11.72.543 1.077.887 1.249.347.174.738.23 1.098.23.625 0 1.162-.169 1.254-.199.291-.097.445-.37.351-.622L2.681.355C2.6.139 2.365 0 2.11 0c-.06 0-.121.008-.182.024" id="aY"/>
        <path d="M.04 2.046C.682 5.26 2.794 13.75 7.924 18.776a.793.793 0 0 0 1.13.003c-1.3-1.299-2.91-3.52-4.793-7.291C1.367 5.692.831 2.118.911 0 .226.396-.124 1.23.04 2.046" id="bb"/>
        <path d="M.028.855.007.87C-.069 3.02.435 6.644 3.155 12.524c1.77 3.825 3.283 6.078 4.504 7.396a.883.883 0 0 0 .201-.367c.906-3.26 2.818-12.317-1.627-18.805 0 0-1.328-.747-3.112-.748-.945 0-2.02.21-3.093.855" id="bd"/>
        <path d="M3.48.491.42 3.621a1.425 1.425 0 0 0-.295 1.59 4.001 4.001 0 0 0 1.558 1.787 1.702 1.702 0 0 0 2-.175l3.064-2.735c.54-.482.653-1.247.272-1.846L6.062.737C5.755.253 5.215 0 4.672 0c-.433 0-.868.16-1.191.491" id="bg"/>
        <path d="M8.17 7.604C4.605 12.885 1.829 15.1 0 16.08c.65.376 1.517.255 2.133-.284C4.555 13.67 10.761 7.71 12.644.945c.124-.447-.128-.844-.518-.945-.5 1.727-1.634 4.17-3.955 7.604" id="bj"/>
        <path d="M14.985.025C11.8.82 3.25 3.568 0 10.763c0 0 .067 3.657 3.158 5.523.007.005.016.007.024.012 1.84-.992 4.636-3.233 8.228-8.577 2.337-3.477 3.48-5.948 3.982-7.696a.802.802 0 0 0-.2-.025.88.88 0 0 0-.207.025" id="bl"/>
        <path d="m2 .272-1.39.984a1.433 1.433 0 0 0-.029 2.326l3.3 2.462c.455.339 1.07.39 1.575.127.84-.439 1.33-1.029 1.613-1.545a1.425 1.425 0 0 0-.333-1.77L3.821.356A1.482 1.482 0 0 0 2 .272" id="bo"/>
        <path d="M23.849 29.042s-6.679 1.02-10.812 3.441C8.904 34.903 0 48.318 0 48.318s2.325 4.424 5.131 5.103l25.345-17.6 20.228-23.574-.96-10.935L33.578 0S27.67 20.174 23.85 29.042" id="br"/>
        <path d="M0 5.538s1.584 14.52 19.842 12.071c18.257-2.448 20.552-5.436 20.552-5.436s-1.585 9.273 18.378 20.423c0 0 3.035-2.297 3.703-4.905L48.485 4.572C46.538 1.54 44.734.741 41.18 1.298 33.324 2.53 18.613 4.136 16.386 3.755L1.733 0 0 5.538z" id="bu"/>
        <path d="M19.048.037C13.76.31 5.401 2.84 0 7.845c1.66 1.845 4.214 4.845 6.118 7.808 1.7-1.608 4.144-2.947 7.583-3.805C10.728 23.035 7.214 33.694 2.932 43.6c-.267.621.038 1.338.672 1.56 3.313 1.163 13.084 3.932 20.922-.527L41.9 19.582a21.528 21.528 0 0 0 3.59-9.033l.686-4.52S31.882.002 20.552 0c-.508 0-1.01.012-1.504.037" id="bx"/>
        <path d="M7.88 27.202c-.615 3.09 1.392 6.686 2.477 7.19.5.233 5.94-2.47 4.905-4.673-.78-1.657-3.445-3.206-4.717-3.871-1.108-2.2-5.527-12.094 1.154-18.14C9.735 4.784 7.102 1.823 5.389 0-1.034 5.703-3.387 14.66 7.88 27.202" id="bA"/>
        <path d="M0 .905 4.527 0 0 .905z" id="bD"/>
        <path d="M.164 8.787A1.423 1.423 0 0 0 .38 10.42c1.116 1.211 3.753 3.178 8.338 1.768.506-.155.87-.588.946-1.099l1.201-7.981L4.775 0 .164 8.787z" id="bG"/>
        <path d="m0 2.961 3.405 8.617c4.873 2.618 10.453 2.85 11.03-.375C15.014 7.98 10.51 0 10.51 0L0 2.961z" id="bJ"/>
        <path d="M13.07 1.723a.33.33 0 0 1-.527.004C11.969.973 10.459-.59 8.364.358c-1.962.888-2.182 2.335-2.156 3.066a.33.33 0 0 1-.391.34c-.992-.19-3.371-.353-4.482 2.107-.914 2.027-.32 3.174.222 3.735a.336.336 0 0 1-.142.555c-.652.2-1.493.758-1.41 2.297.117 2.127 2.477 1.94 3.15 1.843a.33.33 0 0 1 .295.105c.575.643 3.17 3.37 5.98 3.7a.338.338 0 0 0 .352-.447l-1.216-3.562a.337.337 0 0 1 .18-.418l.604-.269a.337.337 0 0 0 .144-.491c-.343-.53-.987-1.609-1.192-2.554 0 0-.771-.498 1.962-1.158 2.734-.659 6.81-1.682 7.667-4.028C18.541 3.51 17.537 0 15.591 0c-.722 0-1.574.483-2.521 1.723" id="bM"/>
        <path d="M.013.677c-.24 1.69 2.94 2.45 4.514 1.819L3.517.994S1.898 0 .857 0C.42 0 .083.176.013.677" id="bP"/>
        <path d="M.019 13.877c-.24 2.7 1.87 5.042 4.614 5.154 9.325.383 29.271 1.127 36.428.813 1.077-.048 1.78-1.134 1.382-2.12a3.484 3.484 0 0 0-1.798-1.867L7.698.927 1.881 0S.63 6.974.019 13.877" id="bS"/>
        <path d="m0 1.306 1.018 8.46s5.85 2.686 9.847-.339L8.442 0 0 1.306z" id="bV"/>
        <path d="M1.022 37.453s-2.3-58.526 0 2.064c2.056 54.224 17.821 110.986 21.11 122.315a2.829 2.829 0 0 0 2.8 2.051c4.147-.143 7.607-1.199 9.373-1.929.75-.31 1.148-1.131.961-1.929-11.51-48.829-9.622-157.791-9.19-160.02L2.368 0 1.022 37.453z" id="bY"/>
        <path d="M.06 13.023a2.936 2.936 0 0 0 2.592 3.515c3.08.301 7.824.69 11.622.664 1.751-.012 3.119-1.532 2.908-3.265C16.76 10.484 15.45 4.817 11.4.401L3.977 0S1.987 3.56.06 13.023" id="cb"/>
        <path d="M0 .507 2.295 13.54s2.27 1.758 6.76.483L7.958 0 0 .507z" id="ce"/>
        <path d="M3.665 6.02c-9.52 57.382 2.065 141.826 5.973 158.355a2.578 2.578 0 0 0 2.084 1.956c1.744.29 4.616.525 7.447-.296a2.365 2.365 0 0 0 1.7-2.176c.525-13.362-.42-95.392 8.453-127.811a7.37 7.37 0 0 1 2.843-4.063L49.384 19.76 50.704 0 3.665 6.02z" id="ch"/>
        <path d="M63.991 4.646c-28.43-.47-59.798 7.46-59.798 7.46C-4.281 61.53 2.71 118.535 2.71 118.535c22.01 5.77 46.837-3.527 46.837-3.527 3.658-20.658 20.726-78.795 20.726-78.795 13.89-1.723 25.333-5.729 34.756-11.025C97.842 16.861 94.454 6.264 92.982 0 82.93 3.122 72.759 4.79 63.99 4.646" id="ck"/>
        <path d="M48.876.38C44.673 18.22 22.638 32.683 0 39.753c1.479 6.326 4.882 17.028 12.103 25.438C49.673 43.964 55.23 2.175 55.23 2.175 53.79.425 52.151 0 50.9 0c-1.184 0-2.023.38-2.023.38" id="cn"/>
        <path d="M.468 17.963c-1.069 1.496.019 9.367.087 11.204C2.51 33 5.832 31.573 5.545 30.635c0 0 3.27-.025 5.563-3.372 1.211-1.77 2.493-4.03 3.432-5.769.936-1.733 1.232-3.767.747-5.671-.64-2.515-2.005-4.269-3.123-6.347l5.35-5.729S19.05 1.89 17.186 0c0 0-11.03 9.992-16.718 17.963" id="cq"/>
        <path d="M1.481 4.295 0 8.57l4.207 5.011s1.415-8.484 2.466-10.32C7.724 1.425 7.179.537 6.2 0L1.481 4.295z" id="ct"/>
        <path d="M0 40.899c4.996.37 14.088 1.673 22.987 6.183C24.943 36.286 41.65 27.514 41.65 27.514L30.79 0S4.348 18.034 0 40.899" id="cw"/>
        <path d="M4.045 21.515c17.656 32.044 65.673-1.77 65.673-1.77l-3.952-7.307s-29.873 16.749-39.952 2.447c-2.093-2.97-2.593-5.922-2.078-8.735C14.781 1.664 5.634.367.606 0-.713 6.855-.015 14.146 4.045 21.515" id="cz"/>
        <path d="M13.481.011 1.46 1.857a.838.838 0 0 0-.7.604l-.736 2.9c-.138.543.356 1.044.954.97l11.57-1.424a.849.849 0 0 0 .705-.539l1.19-3.323C14.63.52 14.198 0 13.627 0a.941.941 0 0 0-.146.011" id="cC"/>
        <path d="M25.873.007 2.026 2.457a1.179 1.179 0 0 0-1.032.959L.021 8.549c-.143.756.451 1.447 1.21 1.41l23.303-1.19a1.177 1.177 0 0 0 1.08-.908l1.516-6.397C27.309.71 26.74 0 25.995 0c-.04 0-.081.002-.122.007" id="cF"/>
        <path d="M.218 6.9c-.917 3.38 1.355 12.91 1.355 12.91 3.822.555 6.113-1.107 7.774-2.768 1.785-1.786 2.842-3.57 4.29-2.609 2.796 1.857 4.428-1.039 4.428-1.039l-2.594-2.92c3.8 1.884 4.198-1.642 4.198-1.642L16.88 6.63c4.499 1.421 4.851-2.984 4.851-2.984S14.748 1.103 8.83.136A9.922 9.922 0 0 0 7.23 0C2.576 0 1.046 3.844.218 6.9" id="cI"/>
        <path d="M8.983 0 .053 26.34a.957.957 0 0 0 .423 1.144c2.434 1.372 11.206 5.34 21.777-1.494a4.479 4.479 0 0 0 2.018-3.192L27.163 0H8.983z" id="cL"/>
        <path d="m0 6.909 7.448 20.106c10.66 6.108 22.868 6.648 24.13-.874C32.841 18.62 22.991 0 22.991 0L0 6.909z" id="cO"/>
        <path d="M30.06 3.964a.762.762 0 0 1-1.212.008C27.526 2.24 24.056-1.356 19.236.824c-4.51 2.04-5.019 5.371-4.956 7.05a.763.763 0 0 1-.902.786c-2.28-.438-7.752-.815-10.306 4.844-2.104 4.661-.737 7.3.509 8.59a.773.773 0 0 1-.327 1.277c-1.499.462-3.434 1.743-3.24 5.283.268 4.893 5.695 4.461 7.24 4.239a.76.76 0 0 1 .68.242c1.325 1.478 7.293 7.753 13.754 8.51.56.065.993-.492.81-1.029l-2.796-8.192a.777.777 0 0 1 .415-.961l1.387-.62a.774.774 0 0 0 .334-1.129c-.79-1.217-2.272-3.7-2.744-5.874 0 0-1.775-1.145 4.513-2.662s15.664-3.871 17.634-9.266C42.643 8.075 40.337 0 35.861 0c-1.662 0-3.62 1.111-5.8 3.964" id="cR"/>
        <path d="M.028 1.58C-.497 5.525 6.496 7.295 9.96 5.824L7.735 2.32S4.18 0 1.888 0C.923 0 .184.411.028 1.58" id="cU"/>
        <path d="m0 0 1.206 37.49c.21 6.538 5.58 11.74 12.157 11.78l89.856.529c4.396.025 8.142-3.166 8.783-7.49C113.407 32.84 115.197 15.9 113.18 0H0z" id="cX"/>
        <path d="M1.938.508c-.74.126-1.369.646-1.67 1.38L0 4.965l15.392.468-.494-3.576C13.098.413 10.245 0 7.57 0 5.324 0 3.204.291 1.938.508" id="da"/>
        <path d="M0 0v9.053c0 .801.542 1.5 1.31 1.693.635.159 1.269.159 1.902.001a1.748 1.748 0 0 0 1.315-1.701V0H0z" id="dd"/>
        <path d="M1.939.508c-.741.126-1.37.646-1.671 1.38L0 4.965l15.392.468-.494-3.576C13.098.413 10.245 0 7.57 0 5.325 0 3.204.291 1.94.508" id="dg"/>
        <path d="M0 0v9.965c0 .799.542 1.495 1.31 1.687a3.884 3.884 0 0 0 1.901.001 1.743 1.743 0 0 0 1.316-1.695V0H0z" id="dj"/>
        <path d="M3.082 4.884A4.459 4.459 0 0 0 .358 7.963c-.33 1.334-.55 3.115-.119 4.928.23.963 1.136 1.627 2.145 1.595l49.337-1.607c1.125-.037 2.08-.835 2.273-1.92.27-1.52.508-3.795.153-6.153-.404-2.682-2.75-4.674-5.516-4.739C47.06.03 45.074 0 42.799 0 31.737 0 13.793.715 3.082 4.884" id="dm"/>
        <path d="M5.315.261A4.234 4.234 0 0 0 1.194 3.74C-.493 13.106.004 27.656.324 33.858c.089 1.74 1.363 3.196 3.09 3.537l49.003 9.687h16.336l45.99-8.652c1.665-.314 2.902-1.73 2.94-3.406.284-12.326-2.111-24.761-3.302-30.114-.375-1.69-1.79-2.952-3.525-3.16C99.123.342 70.706 0 45.845 0 28.015 0 12.01.176 5.315.261" id="dp"/>
        <path d="M3.68 0C1.476 0-.234 1.9.027 4.061L1.67 17.625c.22 1.826 1.79 3.2 3.654 3.2h14.222c1.907 0 3.497-1.436 3.667-3.31l1.219-13.564C24.623 1.828 22.927 0 20.766 0H3.681z" id="ds"/>
        <path d="M2.862 0C1.147 0-.183 1.488.021 3.179l1.278 10.614a2.856 2.856 0 0 0 2.842 2.505h11.061a2.854 2.854 0 0 0 2.851-2.59l.95-10.615C19.15 1.43 17.832 0 16.15 0H2.862z" id="dv"/>
        <linearGradient x1="22.389%" y1="105.771%" x2="183.029%" y2="-232.802%" id="d">
            <stop stop-color="#FF918E" offset="0%"/>
            <stop stop-color="#FD7062" offset="100%"/>
        </linearGradient>
        <linearGradient x1="64.126%" y1="106.658%" x2="-50.972%" y2="-360.275%" id="g">
            <stop stop-color="#FF918E" offset="0%"/>
            <stop stop-color="#FD7062" offset="100%"/>
        </linearGradient>
        <linearGradient x1="86.477%" y1="15.394%" x2="-4.256%" y2="107.094%" id="j">
            <stop stop-color="#08005D" offset="0%"/>
            <stop stop-color="#1A0E90" offset="100%"/>
        </linearGradient>
        <linearGradient x1="13814.406%" y1="-9037.459%" x2="13309.523%" y2="-8704.118%" id="m">
            <stop stop-color="#FF918E" offset="0%"/>
            <stop stop-color="#FD7062" offset="100%"/>
        </linearGradient>
        <linearGradient x1="13896.651%" y1="-9092.019%" x2="13391.783%" y2="-8758.677%" id="p">
            <stop stop-color="#FF918E" offset="0%"/>
            <stop stop-color="#FD7062" offset="100%"/>
        </linearGradient>
        <linearGradient x1="13979.903%" y1="-9146.991%" x2="13475.035%" y2="-8813.649%" id="s">
            <stop stop-color="#FF918E" offset="0%"/>
            <stop stop-color="#FD7062" offset="100%"/>
        </linearGradient>
        <linearGradient x1="14066.444%" y1="-9204.149%" x2="13561.577%" y2="-8870.808%" id="v">
            <stop stop-color="#FF918E" offset="0%"/>
            <stop stop-color="#FD7062" offset="100%"/>
        </linearGradient>
        <linearGradient x1="188.116%" y1="-.846%" x2="-206.638%" y2="144.599%" id="y">
            <stop stop-color="#08005D" offset="0%"/>
            <stop stop-color="#1A0E90" offset="100%"/>
        </linearGradient>
        <linearGradient x1="114.869%" y1="28.957%" x2="-22.595%" y2="75.456%" id="B">
            <stop stop-color="#08005D" offset="0%"/>
            <stop stop-color="#1A0E90" offset="100%"/>
        </linearGradient>
        <linearGradient x1="20.053%" y1="111.06%" x2="56.24%" y2="39.04%" id="E">
            <stop stop-color="#FF918E" offset="0%"/>
            <stop stop-color="#FD7062" offset="100%"/>
        </linearGradient>
        <linearGradient x1="64.724%" y1="4.457%" x2="25.15%" y2="131.657%" id="H">
            <stop stop-color="#FF918E" offset="0%"/>
            <stop stop-color="#FD7062" offset="100%"/>
        </linearGradient>
        <linearGradient x1="-6.593%" y1="107.423%" x2="83.337%" y2="21.538%" id="K">
            <stop stop-color="#FF918E" offset="0%"/>
            <stop stop-color="#FD7062" offset="100%"/>
        </linearGradient>
        <linearGradient x1="99.107%" y1="-27.622%" x2="-56.95%" y2="232.838%" id="N">
            <stop stop-color="#FF918E" offset="0%"/>
            <stop stop-color="#FD7062" offset="100%"/>
        </linearGradient>
        <linearGradient x1="-152.843%" y1="18.176%" x2="216.997%" y2="75.168%" id="S">
            <stop stop-color="#08005D" offset="0%"/>
            <stop stop-color="#1A0E90" offset="100%"/>
        </linearGradient>
        <linearGradient x1="60.021%" y1="-84.319%" x2="34.182%" y2="239.041%" id="V">
            <stop stop-color="#FDBABA" offset="0%"/>
            <stop stop-color="#FF918E" offset="100%"/>
        </linearGradient>
        <linearGradient x1="50%" y1="145.44%" x2="50%" y2="736.039%" id="Y">
            <stop stop-color="#08005D" offset="0%"/>
            <stop stop-color="#1A0E90" offset="100%"/>
        </linearGradient>
        <linearGradient x1="56.724%" y1="-22.358%" x2="30.463%" y2="253.938%" id="ad">
            <stop stop-color="#FDBABA" offset="0%"/>
            <stop stop-color="#FF918E" offset="100%"/>
        </linearGradient>
        <linearGradient x1="49.87%" y1="91.388%" x2="51.316%" y2="-17.068%" id="ag">
            <stop stop-color="#08005D" offset="0%"/>
            <stop stop-color="#1A0E90" offset="100%"/>
        </linearGradient>
        <linearGradient x1="50.229%" y1="-8.314%" x2="47.157%" y2="163.072%" id="aj">
            <stop stop-color="#4F52FF" offset="0%"/>
            <stop stop-color="#3F42E2" offset="100%"/>
        </linearGradient>
        <linearGradient x1="61.275%" y1="171.851%" x2="44.06%" y2="24.468%" id="am">
            <stop stop-color="#FDBABA" offset="0%"/>
            <stop stop-color="#FF918E" offset="100%"/>
        </linearGradient>
        <linearGradient x1="50.418%" y1="44.877%" x2="46.841%" y2="247.032%" id="ap">
            <stop stop-color="#4F52FF" offset="0%"/>
            <stop stop-color="#3F42E2" offset="100%"/>
        </linearGradient>
        <linearGradient x1="74.231%" y1="-33.662%" x2="14.053%" y2="167.955%" id="as">
            <stop stop-color="#FDBABA" offset="0%"/>
            <stop stop-color="#FF918E" offset="100%"/>
        </linearGradient>
        <linearGradient x1="49.582%" y1="44.877%" x2="53.159%" y2="247.034%" id="av">
            <stop stop-color="#4F52FF" offset="0%"/>
            <stop stop-color="#3F42E2" offset="100%"/>
        </linearGradient>
        <linearGradient x1="25.77%" y1="-33.667%" x2="85.948%" y2="167.961%" id="ay">
            <stop stop-color="#FDBABA" offset="0%"/>
            <stop stop-color="#FF918E" offset="100%"/>
        </linearGradient>
        <linearGradient x1="89.048%" y1="67.748%" x2="-5.597%" y2="9.774%" id="aB">
            <stop stop-color="#FDBABA" offset="0%"/>
            <stop stop-color="#FF918E" offset="100%"/>
        </linearGradient>
        <linearGradient x1="-9.863%" y1="-6.588%" x2="83.32%" y2="67.602%" id="aE">
            <stop stop-color="#08005D" offset="0%"/>
            <stop stop-color="#1A0E90" offset="100%"/>
        </linearGradient>
        <linearGradient x1="193.855%" y1="139.561%" x2="-83.638%" y2="-22.265%" id="aH">
            <stop stop-color="#FDBABA" offset="0%"/>
            <stop stop-color="#FF918E" offset="100%"/>
        </linearGradient>
        <linearGradient x1="-17.182%" y1="109.358%" x2="59.265%" y2="43.923%" id="aK">
            <stop stop-color="#FF918E" offset="0%"/>
            <stop stop-color="#FD7062" offset="100%"/>
        </linearGradient>
        <linearGradient x1="79.23%" y1="-3.433%" x2="6.232%" y2="137.129%" id="aN">
            <stop stop-color="#FF918E" offset="0%"/>
            <stop stop-color="#FD7062" offset="100%"/>
        </linearGradient>
        <linearGradient x1="70.456%" y1="63.175%" x2="-64.717%" y2="-42.459%" id="aQ">
            <stop stop-color="#4F52FF" offset="0%"/>
            <stop stop-color="#3F42E2" offset="100%"/>
        </linearGradient>
        <linearGradient x1="112.056%" y1="32.318%" x2="-116.379%" y2="87.744%" id="aT">
            <stop stop-color="#FDBABA" offset="0%"/>
            <stop stop-color="#FF918E" offset="100%"/>
        </linearGradient>
        <linearGradient x1="64.175%" y1="45.286%" x2="-522.281%" y2="327.366%" id="aW">
            <stop stop-color="#FDBABA" offset="0%"/>
            <stop stop-color="#FF918E" offset="100%"/>
        </linearGradient>
        <linearGradient x1="-327.186%" y1="663.305%" x2="-1.887%" y2="151.129%" id="aZ">
            <stop stop-color="#FDBABA" offset="0%"/>
            <stop stop-color="#FF918E" offset="100%"/>
        </linearGradient>
        <linearGradient x1="-.001%" y1="50.001%" x2="100%" y2="50.001%" id="be">
            <stop stop-color="#08005D" offset="0%"/>
            <stop stop-color="#1A0E90" offset="100%"/>
        </linearGradient>
        <linearGradient x1="0%" y1="50%" x2="100.003%" y2="50%" id="bh">
            <stop stop-color="#FDBABA" offset="0%"/>
            <stop stop-color="#FF918E" offset="100%"/>
        </linearGradient>
        <linearGradient x1="-.001%" y1="49.999%" x2="99.999%" y2="49.999%" id="bm">
            <stop stop-color="#08005D" offset="0%"/>
            <stop stop-color="#1A0E90" offset="100%"/>
        </linearGradient>
        <linearGradient x1="0%" y1="50.001%" x2="99.998%" y2="50.001%" id="bp">
            <stop stop-color="#FDBABA" offset="0%"/>
            <stop stop-color="#FF918E" offset="100%"/>
        </linearGradient>
        <linearGradient x1="82.062%" y1="14.04%" x2="-8.223%" y2="101.137%" id="bs">
            <stop stop-color="#08005D" offset="0%"/>
            <stop stop-color="#1A0E90" offset="100%"/>
        </linearGradient>
        <linearGradient x1="127.044%" y1="51.44%" x2="26.281%" y2="49.295%" id="bv">
            <stop stop-color="#08005D" offset="0%"/>
            <stop stop-color="#1A0E90" offset="100%"/>
        </linearGradient>
        <linearGradient x1="52.69%" y1="17.491%" x2="-32.946%" y2="157.611%" id="by">
            <stop stop-color="#4F52FF" offset="0%"/>
            <stop stop-color="#3F42E2" offset="100%"/>
        </linearGradient>
        <linearGradient x1="57.835%" y1="75.609%" x2="13.39%" y2="-93.656%" id="bB">
            <stop stop-color="#FDBABA" offset="0%"/>
            <stop stop-color="#FF918E" offset="100%"/>
        </linearGradient>
        <linearGradient x1="-29.235%" y1="-222.434%" x2="72.428%" y2="127.132%" id="bE">
            <stop stop-color="#CA236D" offset="0%"/>
            <stop stop-color="#4B236D" offset="100%"/>
        </linearGradient>
        <linearGradient x1="33.511%" y1="120.619%" x2="57.329%" y2="43.439%" id="bH">
            <stop stop-color="#FDBABA" offset="0%"/>
            <stop stop-color="#FF918E" offset="100%"/>
        </linearGradient>
        <linearGradient x1="89.048%" y1="65.6%" x2="-5.595%" y2="14.647%" id="bK">
            <stop stop-color="#FDBABA" offset="0%"/>
            <stop stop-color="#FF918E" offset="100%"/>
        </linearGradient>
        <linearGradient x1="-9.862%" y1="-6.59%" x2="83.32%" y2="67.599%" id="bN">
            <stop stop-color="#08005D" offset="0%"/>
            <stop stop-color="#1A0E90" offset="100%"/>
        </linearGradient>
        <linearGradient x1="193.884%" y1="100.387%" x2="-83.657%" y2="9.344%" id="bQ">
            <stop stop-color="#FDBABA" offset="0%"/>
            <stop stop-color="#FF918E" offset="100%"/>
        </linearGradient>
        <linearGradient x1="99.168%" y1="-.561%" x2="22.535%" y2="80.783%" id="bT">
            <stop stop-color="#08005D" offset="0%"/>
            <stop stop-color="#1A0E90" offset="100%"/>
        </linearGradient>
        <linearGradient x1="-.001%" y1="50.001%" x2="100%" y2="50.001%" id="bW">
            <stop stop-color="#FDBABA" offset="0%"/>
            <stop stop-color="#FF918E" offset="100%"/>
        </linearGradient>
        <linearGradient x1="0%" y1="50%" x2="100%" y2="50%" id="bZ">
            <stop stop-color="#08005D" offset="0%"/>
            <stop stop-color="#1A0E90" offset="100%"/>
        </linearGradient>
        <linearGradient x1="229.087%" y1="-340.945%" x2="39.408%" y2="93.806%" id="cc">
            <stop stop-color="#08005D" offset="0%"/>
            <stop stop-color="#1A0E90" offset="100%"/>
        </linearGradient>
        <linearGradient x1=".002%" y1="50.001%" x2="100%" y2="50.001%" id="cf">
            <stop stop-color="#FDBABA" offset="0%"/>
            <stop stop-color="#FF918E" offset="100%"/>
        </linearGradient>
        <linearGradient x1="0%" y1="50%" x2="100%" y2="50%" id="ci">
            <stop stop-color="#08005D" offset="0%"/>
            <stop stop-color="#1A0E90" offset="100%"/>
        </linearGradient>
        <linearGradient x1="1.481%" y1="77.476%" x2="124.134%" y2="-23.682%" id="cl">
            <stop stop-color="#4F52FF" offset="0%"/>
            <stop stop-color="#3F42E2" offset="100%"/>
        </linearGradient>
        <linearGradient x1="4.931%" y1="98.779%" x2="100.415%" y2="4.117%" id="co">
            <stop stop-color="#FDBABA" offset="0%"/>
            <stop stop-color="#FF918E" offset="100%"/>
        </linearGradient>
        <linearGradient x1="18.656%" y1="134.544%" x2="64.39%" y2="21.014%" id="cr">
            <stop stop-color="#FDBABA" offset="0%"/>
            <stop stop-color="#FF918E" offset="100%"/>
        </linearGradient>
        <linearGradient x1="37.532%" y1="88.394%" x2="228.941%" y2="-370.734%" id="cu">
            <stop stop-color="#FDBABA" offset="0%"/>
            <stop stop-color="#FF918E" offset="100%"/>
        </linearGradient>
        <linearGradient x1="-7.954%" y1="106.617%" x2="308.89%" y2="-152.108%" id="cx">
            <stop stop-color="#4F52FF" offset="0%"/>
            <stop stop-color="#3F42E2" offset="100%"/>
        </linearGradient>
        <linearGradient x1="0%" y1="50%" x2="100.001%" y2="50%" id="cA">
            <stop stop-color="#FDBABA" offset="0%"/>
            <stop stop-color="#FF918E" offset="100%"/>
        </linearGradient>
        <linearGradient x1="318.381%" y1="-108.421%" x2="168.624%" y2="-20.181%" id="cD">
            <stop stop-color="#08005D" offset="0%"/>
            <stop stop-color="#1A0E90" offset="100%"/>
        </linearGradient>
        <linearGradient x1="200.96%" y1="-31.669%" x2="122.525%" y2="10.925%" id="cG">
            <stop stop-color="#08005D" offset="0%"/>
            <stop stop-color="#1A0E90" offset="100%"/>
        </linearGradient>
        <linearGradient x1="0%" y1="50%" x2="100.002%" y2="50%" id="cJ">
            <stop stop-color="#FDBABA" offset="0%"/>
            <stop stop-color="#FF918E" offset="100%"/>
        </linearGradient>
        <linearGradient x1="12.151%" y1="141.754%" x2="68.997%" y2="17.897%" id="cM">
            <stop stop-color="#FDBABA" offset="0%"/>
            <stop stop-color="#FF918E" offset="100%"/>
        </linearGradient>
        <linearGradient x1="1371.215%" y1="867.684%" x2="1518.442%" y2="959.486%" id="cP">
            <stop stop-color="#FDBABA" offset="0%"/>
            <stop stop-color="#FF918E" offset="100%"/>
        </linearGradient>
        <linearGradient x1="-9.862%" y1="-6.589%" x2="83.32%" y2="67.601%" id="cS">
            <stop stop-color="#08005D" offset="0%"/>
            <stop stop-color="#1A0E90" offset="100%"/>
        </linearGradient>
        <linearGradient x1="4398.842%" y1="1687.157%" x2="4878.595%" y2="1867.365%" id="cV">
            <stop stop-color="#FDBABA" offset="0%"/>
            <stop stop-color="#FF918E" offset="100%"/>
        </linearGradient>
        <linearGradient x1="52.257%" y1="65.384%" x2="49.371%" y2="39.584%" id="cY">
            <stop stop-color="#4F52FF" offset="0%"/>
            <stop stop-color="#3F42E2" offset="100%"/>
        </linearGradient>
        <linearGradient x1="51.932%" y1="73.452%" x2="47.686%" y2="34.432%" id="db">
            <stop stop-color="#08005D" offset="0%"/>
            <stop stop-color="#1A0E90" offset="100%"/>
        </linearGradient>
        <linearGradient x1="47.956%" y1="-27.418%" x2="60.379%" y2="394.319%" id="de">
            <stop stop-color="#08005D" offset="0%"/>
            <stop stop-color="#1A0E90" offset="100%"/>
        </linearGradient>
        <linearGradient x1="51.446%" y1="68.969%" x2="47.199%" y2="29.949%" id="dh">
            <stop stop-color="#08005D" offset="0%"/>
            <stop stop-color="#1A0E90" offset="100%"/>
        </linearGradient>
        <linearGradient x1="47.631%" y1="-44.178%" x2="58.215%" y2="343.528%" id="dk">
            <stop stop-color="#08005D" offset="0%"/>
            <stop stop-color="#1A0E90" offset="100%"/>
        </linearGradient>
        <linearGradient x1="117.554%" y1="42.317%" x2="17.079%" y2="55.101%" id="dn">
            <stop stop-color="#4F52FF" offset="0%"/>
            <stop stop-color="#3F42E2" offset="100%"/>
        </linearGradient>
        <linearGradient x1="49.113%" y1="53.901%" x2="56.344%" y2="24.673%" id="dq">
            <stop stop-color="#4F52FF" offset="0%"/>
            <stop stop-color="#3F42E2" offset="100%"/>
        </linearGradient>
        <linearGradient x1="240.78%" y1="-313.078%" x2="151.507%" y2="-145.374%" id="dt">
            <stop stop-color="#08005D" offset="0%"/>
            <stop stop-color="#1A0E90" offset="100%"/>
        </linearGradient>
        <linearGradient x1="-.001%" y1="50%" x2="99.999%" y2="50%" id="dw">
            <stop stop-color="#4F52FF" offset="0%"/>
            <stop stop-color="#3F42E2" offset="100%"/>
        </linearGradient>
    </defs>
    <g fill="none" fill-rule="evenodd">
        <g transform="translate(0 2.716)">
            <mask id="b" fill="#fff">
                <use xlink:href="#a"/>
            </mask>
            <path d="M194.234 1.896C97.118 14.583 49.337 93.691 40.291 107.945c-49.453 77.922-59.38 195.965 4.374 270.89 42.14 49.524 100.428 61.355 130.581 67.475 8.292 1.684 29.05 5.482 56.23 5.5h.453c39.709-.033 92.974-8.158 141.019-42.608 6.907-4.952 15.65-11.221 24.892-20.943 32.994-34.713 52.088-92.171 52.16-152.363v-.693c-.079-67.348-23.98-138.005-78.867-183.96C329.656 16.516 274.982 0 223.82 0c-10.036 0-19.947.637-29.586 1.896" fill="#454C69" mask="url(#b)"/>
        </g>
        <g fill="#91B3FA">
            <path d="M51.841 131.435a1.288 1.288 0 0 1-.17 2.568 51.609 51.609 0 0 1-4.403-.243 1.288 1.288 0 0 1-1.128-1.405 1.286 1.286 0 0 1 1.405-1.158c1.378.136 2.777.212 4.159.23.046 0 .092.003.137.008m-15.234-2.555c.084.01.17.028.253.056 1.312.435 2.661.818 4.008 1.14a1.29 1.29 0 0 1-.596 2.508 52.142 52.142 0 0 1-4.219-1.2 1.29 1.29 0 0 1 .554-2.504m26.374 1.427a1.289 1.289 0 0 1 .12 2.54c-1.421.31-2.875.56-4.318.745a1.288 1.288 0 0 1-.328-2.556 48.394 48.394 0 0 0 4.102-.708c.144-.031.287-.038.424-.021m-36.546-6.128c.176.021.351.08.514.178a48.52 48.52 0 0 0 3.651 2.008 1.29 1.29 0 0 1 .583 1.726c-.314.639-1.085.9-1.722.585a50.894 50.894 0 0 1-3.846-2.114 1.29 1.29 0 0 1 .82-2.383m47.152 2.535a1.29 1.29 0 0 1 .395 2.447 51.698 51.698 0 0 1-4.046 1.693 1.29 1.29 0 0 1-.888-2.419 49.29 49.29 0 0 0 3.843-1.608c.226-.106.466-.14.696-.113m9.554-5.862a1.29 1.29 0 0 1 .637 2.297 51.965 51.965 0 0 1-3.572 2.547 1.283 1.283 0 0 1-1.778-.378 1.292 1.292 0 0 1 .377-1.783 49.29 49.29 0 0 0 3.395-2.421 1.28 1.28 0 0 1 .941-.262m8.024-7.838a1.291 1.291 0 0 1 .842 2.096 51.766 51.766 0 0 1-2.922 3.28 1.285 1.285 0 0 1-1.818.024 1.29 1.29 0 0 1-.025-1.823 48.695 48.695 0 0 0 2.775-3.114c.29-.353.726-.513 1.148-.463m6.078-9.432a1.291 1.291 0 0 1 1 1.853 51.505 51.505 0 0 1-2.116 3.849 1.285 1.285 0 1 1-2.197-1.34 48.83 48.83 0 0 0 2.01-3.655c.248-.502.779-.77 1.303-.707m3.82-10.552a1.29 1.29 0 0 1 1.1 1.582 52.084 52.084 0 0 1-1.207 4.223 1.285 1.285 0 1 1-2.44-.814c.436-1.312.821-2.662 1.146-4.013a1.286 1.286 0 0 1 1.4-.978m1.406-11.139a1.288 1.288 0 0 1 1.133 1.298 51.828 51.828 0 0 1-.25 4.388c-.07.708-.7 1.226-1.406 1.155l-.025-.003a1.288 1.288 0 0 1-1.127-1.408c.137-1.383.217-2.786.237-4.168a1.287 1.287 0 0 1 1.438-1.262M19.168 118.807c.25.03.497.134.7.316.496.44 1.009.88 1.526 1.303.55.45.63 1.262.18 1.813-.449.551-1.259.633-1.808.182a52.288 52.288 0 0 1-1.605-1.37 1.291 1.291 0 0 1-.108-1.82 1.283 1.283 0 0 1 1.115-.424"/>
        </g>
        <g fill="#91B3FA">
            <path d="M2.345 83.316a1.288 1.288 0 0 1 1.131 1.228c.027.664.068 1.338.122 2.004a1.285 1.285 0 1 1-2.563.21 50.946 50.946 0 0 1-.128-2.11 1.287 1.287 0 0 1 1.438-1.332M3.113 72.294l.08.012a1.288 1.288 0 0 1 1.035 1.498 49.518 49.518 0 0 0-.564 4.07 1.286 1.286 0 0 1-1.404 1.158c-.717-.056-1.225-.698-1.157-1.407a52.45 52.45 0 0 1 .594-4.282 1.286 1.286 0 0 1 1.416-1.05m3.138-10.588a1.29 1.29 0 0 1 1.033 1.78 49.13 49.13 0 0 0-1.43 3.848 1.287 1.287 0 1 1-2.445-.798c.443-1.366.95-2.729 1.505-4.05a1.287 1.287 0 0 1 1.337-.78m5.386-9.646a1.29 1.29 0 0 1 .892 2.03 49.165 49.165 0 0 0-2.242 3.438 1.285 1.285 0 0 1-1.763.45 1.291 1.291 0 0 1-.448-1.767 51.581 51.581 0 0 1 2.361-3.621 1.286 1.286 0 0 1 1.2-.53M19 43.837a1.29 1.29 0 0 1 .704 2.24 49.108 49.108 0 0 0-2.94 2.864 1.284 1.284 0 0 1-1.818.05 1.291 1.291 0 0 1-.05-1.823 52.086 52.086 0 0 1 3.094-3.012c.287-.257.656-.361 1.01-.319m8.974-6.414c.395.047.763.277.972.65a1.29 1.29 0 0 1-.496 1.755 49.487 49.487 0 0 0-3.49 2.152 1.283 1.283 0 0 1-1.786-.348 1.291 1.291 0 0 1 .348-1.79 52.159 52.159 0 0 1 3.673-2.264c.247-.138.519-.186.78-.155m10.15-4.298a1.29 1.29 0 0 1 .216 2.515 48.904 48.904 0 0 0-3.874 1.337 1.29 1.29 0 0 1-.939-2.4 51.336 51.336 0 0 1 4.078-1.407c.173-.052.35-.066.518-.045m38.686 4.29c.162.02.323.071.474.156 1.251.7 2.488 1.462 3.676 2.266.588.398.744 1.199.346 1.789a1.283 1.283 0 0 1-1.785.347 48.752 48.752 0 0 0-3.49-2.152 1.29 1.29 0 0 1 .779-2.406m-27.843-6.251a1.287 1.287 0 0 1 1.13 1.192 1.288 1.288 0 0 1-1.196 1.373 48.365 48.365 0 0 0-4.073.45 1.288 1.288 0 0 1-.39-2.548 50.99 50.99 0 0 1 4.289-.474 1.3 1.3 0 0 1 .24.007m17.678 1.967c.072.009.143.024.215.045 1.376.408 2.75.878 4.083 1.4a1.29 1.29 0 0 1 .731 1.668 1.285 1.285 0 0 1-1.665.733 48.863 48.863 0 0 0-3.88-1.33 1.29 1.29 0 0 1 .516-2.516m-8.39-1.73c.587.071 1.176.151 1.766.242a1.29 1.29 0 0 1-.39 2.548 49.643 49.643 0 0 0-4.075-.456 1.288 1.288 0 0 1-1.194-1.375c.05-.71.664-1.246 1.372-1.196a52.13 52.13 0 0 1 2.521.238M85.807 43.86c.254.03.5.136.705.319.519.466 1.037.952 1.54 1.444a1.29 1.29 0 0 1 .025 1.822c-.496.51-1.31.521-1.819.024a49.778 49.778 0 0 0-1.463-1.371 1.29 1.29 0 0 1 1.012-2.239"/>
        </g>
        <path d="M82.32 58.497a.6.6 0 0 0-.646-.262l-7.115 1.699a31.884 31.884 0 0 0-8.448-5.949l-.821-7.28a.602.602 0 0 0-.467-.52l-8.564-1.914a.6.6 0 0 0-.642.272l-3.831 6.24a31.805 31.805 0 0 0-10.168 1.788l-5.721-4.568a.6.6 0 0 0-.697-.038l-7.406 4.716a.603.603 0 0 0-.263.648l1.696 7.131a31.953 31.953 0 0 0-5.935 8.466l-7.264.824a.602.602 0 0 0-.52.467L13.6 78.8c-.056.25.053.51.272.644l6.226 3.84a31.972 31.972 0 0 0 1.784 10.19l-4.559 5.734a.604.604 0 0 0-.037.698l4.705 7.423a.6.6 0 0 0 .647.263l7.115-1.7a31.87 31.87 0 0 0 8.448 5.948l.821 7.28a.603.603 0 0 0 .466.521l8.565 1.914a.6.6 0 0 0 .642-.273l3.83-6.24a31.79 31.79 0 0 0 10.17-1.787l5.72 4.568a.6.6 0 0 0 .697.038l7.406-4.716a.603.603 0 0 0 .263-.648l-1.696-7.131a31.95 31.95 0 0 0 5.935-8.466l7.264-.824a.602.602 0 0 0 .519-.467l1.91-8.583a.602.602 0 0 0-.272-.644l-6.226-3.839a32.008 32.008 0 0 0-1.784-10.191l4.558-5.734c.16-.2.176-.481.038-.698l-4.705-7.423z" fill="#91B3FA"/>
        <path d="M51.342 89.642c.33.04.664.055 1.002.045 3.727-.103 6.675-3.228 6.571-6.962-.104-3.736-3.22-6.692-6.948-6.587-3.727.104-6.675 3.228-6.571 6.964a6.74 6.74 0 0 0 2.113 4.735 6.707 6.707 0 0 0 3.833 1.805m1.862-15.506a8.845 8.845 0 0 1 7.768 8.53c.135 4.873-3.71 8.947-8.571 9.083a8.746 8.746 0 0 1-6.306-2.414 8.787 8.787 0 0 1-2.756-6.176c-.135-4.872 3.71-8.946 8.57-9.082a8.89 8.89 0 0 1 1.295.059" fill="#BDD0FB"/>
        <path d="M54.53 61.437A21.963 21.963 0 0 1 60.7 63.11l.043.018.123.055c.08.035.158.072.238.108a.515.515 0 0 1-.43.936 20.767 20.767 0 0 0-4.17-1.408c-7.144-1.598-14.265.74-19.1 5.572a20.596 20.596 0 0 0-5.559 10.128c-.155.699-.274 1.4-.357 2.101a20.58 20.58 0 0 0 3.083 13.507c2.959 4.668 7.555 7.902 12.94 9.106 11.123 2.485 22.18-4.559 24.66-15.7.152-.687.27-1.38.351-2.074.358-3.009.053-6.063-.9-8.941a.515.515 0 0 1 .976-.325 21.713 21.713 0 0 1 .576 11.564c-2.603 11.697-14.219 19.09-25.887 16.482-5.654-1.263-10.478-4.658-13.584-9.558-2.705-4.266-3.825-9.229-3.238-14.18a22.13 22.13 0 0 1 .376-2.205c1.261-5.667 4.648-10.502 9.538-13.615 4.257-2.712 9.21-3.833 14.152-3.244" fill="#BDD0FB"/>
        <g fill="#91B3FA">
            <path d="M150.05 53.365c.34.04.629.3.688.658a34.3 34.3 0 0 1 .279 2.017.793.793 0 1 1-1.58.17 33.084 33.084 0 0 0-.265-1.923.795.795 0 0 1 .877-.922M107.261 91.082a.775.775 0 0 1 .137.03 32.882 32.882 0 0 0 3.925.93.796.796 0 0 1 .648.92c-.075.435-.49.737-.918.65a34.477 34.477 0 0 1-4.115-.978.796.796 0 0 1 .323-1.552m12.257 1.36a.795.795 0 0 1-.036 1.585c-1.397.105-2.82.123-4.227.054a.795.795 0 0 1 .077-1.591c1.343.067 2.7.05 4.032-.051a.795.795 0 0 1 .154.004m8.078-1.632a.797.797 0 0 1 .158 1.546 34.2 34.2 0 0 1-4.082 1.092.796.796 0 0 1-.314-1.561 32.524 32.524 0 0 0 3.892-1.041.783.783 0 0 1 .346-.036m7.437-3.562a.798.798 0 0 1 .334 1.462 34.769 34.769 0 0 1-3.694 2.057.792.792 0 0 1-1.06-.375.797.797 0 0 1 .374-1.062 33.024 33.024 0 0 0 3.525-1.963.792.792 0 0 1 .52-.12m6.356-5.267a.798.798 0 0 1 .483 1.337 34.55 34.55 0 0 1-3.087 2.897.795.795 0 1 1-1.012-1.228 32.803 32.803 0 0 0 2.944-2.762c.18-.19.43-.273.672-.244m4.878-6.665a.796.796 0 0 1 .6 1.178 34.36 34.36 0 0 1-2.287 3.568.792.792 0 0 1-1.11.17.797.797 0 0 1-.171-1.112 32.663 32.663 0 0 0 2.18-3.402.794.794 0 0 1 .788-.402m3.094-7.661a.796.796 0 0 1 .674.997 34.583 34.583 0 0 1-1.34 4.017.795.795 0 1 1-1.473-.596 33.055 33.055 0 0 0 1.28-3.833.795.795 0 0 1 .86-.585m1.147-8.184c.4.047.706.391.7.803a34.584 34.584 0 0 1-.331 4.225c-.062.435-.485.72-.897.678a.796.796 0 0 1-.677-.899 33.162 33.162 0 0 0 .316-4.03.796.796 0 0 1 .89-.777"/>
        </g>
        <g fill="#91B3FA">
            <path d="M91.473 37.182a.797.797 0 0 1 .51 1.307 32.626 32.626 0 0 0-2.386 3.177.794.794 0 1 1-1.325-.878 34.373 34.373 0 0 1 2.501-3.332.794.794 0 0 1 .7-.274m5.968-5.507a.797.797 0 0 1 .37 1.437 33.296 33.296 0 0 0-3.077 2.51.792.792 0 0 1-1.122-.046.797.797 0 0 1 .047-1.124 34.692 34.692 0 0 1 3.225-2.632.791.791 0 0 1 .557-.145m7.108-3.912a.796.796 0 0 1 .203 1.53 32.718 32.718 0 0 0-3.585 1.7.793.793 0 0 1-1.079-.314.797.797 0 0 1 .314-1.082 34.492 34.492 0 0 1 3.758-1.782.787.787 0 0 1 .39-.052m27.585 1.213c.09.01.179.037.265.08a34.083 34.083 0 0 1 3.591 2.106.794.794 0 1 1-.884 1.322 32.583 32.583 0 0 0-3.424-2.007.795.795 0 0 1 .452-1.5m-19.75-3.303a.796.796 0 0 1 .016 1.578 32.819 32.819 0 0 0-3.889.787.796.796 0 0 1-.407-1.54 34.335 34.335 0 0 1 4.077-.823c.069-.01.137-.01.204-.002m12.116.542a.962.962 0 0 1 .085.016c1.347.309 2.69.704 3.99 1.173a.797.797 0 0 1-.537 1.499 33.113 33.113 0 0 0-3.808-1.121.796.796 0 0 1 .27-1.567m-4.008-.67a.796.796 0 0 1-.177 1.581 32.85 32.85 0 0 0-3.962-.179.796.796 0 0 1-.025-1.592 34.562 34.562 0 0 1 4.164.19M138.904 33.527c.152.018.3.08.425.188.514.446 1.018.909 1.496 1.376a.796.796 0 0 1-1.109 1.14 33.151 33.151 0 0 0-1.427-1.313.797.797 0 0 1 .615-1.391"/>
        </g>
        <path d="M137.035 43.66a.4.4 0 0 0-.432-.176l-4.761 1.136a21.31 21.31 0 0 0-5.653-3.98l-.55-4.871a.403.403 0 0 0-.312-.348l-5.73-1.282a.403.403 0 0 0-.43.183l-2.564 4.176a21.291 21.291 0 0 0-6.804 1.195l-3.828-3.057a.403.403 0 0 0-.467-.024l-4.955 3.155a.403.403 0 0 0-.176.434l1.135 4.772a21.385 21.385 0 0 0-3.972 5.665l-4.86.551a.401.401 0 0 0-.348.313l-1.278 5.743a.403.403 0 0 0 .182.43l4.166 2.57a21.41 21.41 0 0 0 1.194 6.82l-3.05 3.836a.405.405 0 0 0-.025.467l3.148 4.967a.402.402 0 0 0 .432.176l4.762-1.137a21.323 21.323 0 0 0 5.653 3.98l.55 4.871c.019.172.144.311.312.348l5.73 1.282a.403.403 0 0 0 .43-.183l2.563-4.175a21.28 21.28 0 0 0 6.805-1.196l3.827 3.056a.401.401 0 0 0 .467.026l4.956-3.156a.403.403 0 0 0 .175-.434l-1.134-4.772a21.37 21.37 0 0 0 3.971-5.665l4.861-.55c.17-.02.31-.145.348-.313l1.277-5.744a.402.402 0 0 0-.181-.43l-4.167-2.57a21.429 21.429 0 0 0-1.193-6.819l3.05-3.837a.404.404 0 0 0 .025-.467l-3.149-4.967z" fill="#91B3FA"/>
        <path d="M116.325 64.395a4.43 4.43 0 0 0 4.942-4.522 4.404 4.404 0 0 0-1.38-3.093 4.392 4.392 0 0 0-3.16-1.21 4.385 4.385 0 0 0-3.087 1.384 4.432 4.432 0 0 0 2.686 7.442m1.247-10.377a5.956 5.956 0 0 1 3.406 1.604 5.987 5.987 0 0 1 1.877 4.207c.092 3.317-2.527 6.093-5.838 6.186a6.022 6.022 0 0 1-6.173-5.851 5.989 5.989 0 0 1 1.64-4.305 5.96 5.96 0 0 1 4.199-1.882c.299-.008.596.006.89.04" fill="#BDD0FB"/>
        <path d="M118.508 45.181a15.024 15.024 0 0 1 4.393 1.22l.124.056a.796.796 0 0 1-.664 1.446 13.416 13.416 0 0 0-2.698-.911 13.21 13.21 0 0 0-6.697.22c-1.144.34-2.247.836-3.284 1.483l-.025.016-.077.049a13.314 13.314 0 0 0-5.882 8.395 13.63 13.63 0 0 0-.231 1.36 13.326 13.326 0 0 0 1.996 8.745 13.289 13.289 0 0 0 8.377 5.894c3.484.777 7.067.15 10.082-1.769a13.317 13.317 0 0 0 5.882-8.395 13.384 13.384 0 0 0-.355-7.13.795.795 0 1 1 1.507-.501 14.984 14.984 0 0 1 .398 7.977 14.894 14.894 0 0 1-6.58 9.393 14.821 14.821 0 0 1-11.28 1.979 14.859 14.859 0 0 1-9.372-6.595 14.906 14.906 0 0 1-2.233-9.783c.06-.507.146-1.015.259-1.52 1.684-7.57 8.836-12.526 16.36-11.629" fill="#BDD0FB"/>
        <g transform="translate(321.429)">
            <mask id="e" fill="#fff">
                <use xlink:href="#c"/>
            </mask>
            <path d="M22.636 0c-.237 0-.823.07-1.138.712l-5.11 10.421a5.146 5.146 0 0 1-3.871 2.831L1.09 15.635c-.706.104-.952.642-1.026.87a1.25 1.25 0 0 0 .322 1.309l8.268 8.111a5.197 5.197 0 0 1 1.48 4.581L8.181 41.96c-.082.486.1.828.268 1.028.248.295.615.473.982.473.199 0 .398-.052.591-.154l10.22-5.408a5.138 5.138 0 0 1 2.393-.595c.83 0 1.658.206 2.393.595l10.22 5.408c.192.102.391.154.59.154.368 0 .735-.178.982-.473.169-.2.352-.542.27-1.028l-1.953-11.454a5.198 5.198 0 0 1 1.479-4.58l8.268-8.112c.51-.5.394-1.083.321-1.31a1.24 1.24 0 0 0-1.024-.869l-11.426-1.671a5.144 5.144 0 0 1-3.872-2.831L23.774.712A1.235 1.235 0 0 0 22.636 0z" fill="url(#d)" mask="url(#e)"/>
        </g>
        <g fill="#FFF">
            <path d="M333.22 28.037a.293.293 0 0 1-.278-.202 6.862 6.862 0 0 0-1.735-2.783l-3.177-3.089a.292.292 0 0 1-.005-.414.294.294 0 0 1 .415-.005l3.177 3.089a7.453 7.453 0 0 1 1.882 3.021.293.293 0 0 1-.279.383M339.458 37.513a.292.292 0 0 1-.137-.552l1.382-.724a7.482 7.482 0 0 1 3.462-.852c1.2 0 2.398.295 3.463.852a.292.292 0 1 1-.273.518 6.892 6.892 0 0 0-3.19-.786 6.89 6.89 0 0 0-3.19.786l-1.381.724a.29.29 0 0 1-.136.034M353.819 39.839c-.23 0-.462-.034-.69-.103a.293.293 0 1 1 .173-.56 1.788 1.788 0 0 0 1.71-.38 1.76 1.76 0 0 0 .583-1.653l-1.022-5.94a7.41 7.41 0 0 1 2.14-6.57l4.326-4.208c.503-.489.675-1.18.457-1.845a1.77 1.77 0 0 0-1.457-1.226l-5.979-.867a7.437 7.437 0 0 1-5.602-4.06l-2.674-5.405a1.772 1.772 0 0 0-1.62-1.004c-.702 0-1.307.375-1.618 1.004l-2.674 5.405a7.44 7.44 0 0 1-5.603 4.06l-5.979.867a1.795 1.795 0 0 0-.94.431.294.294 0 0 1-.414-.023.292.292 0 0 1 .023-.413 2.382 2.382 0 0 1 1.247-.574l5.98-.867a6.853 6.853 0 0 0 5.16-3.74l2.674-5.405a2.379 2.379 0 0 1 2.145-1.33c.917 0 1.739.51 2.144 1.33l2.674 5.404a6.85 6.85 0 0 0 5.162 3.741l5.978.867a2.377 2.377 0 0 1 1.931 1.624c.283.87.052 1.807-.605 2.445l-4.327 4.208a6.828 6.828 0 0 0-1.97 6.052l1.02 5.94a2.36 2.36 0 0 1-.772 2.19 2.39 2.39 0 0 1-1.581.605"/>
        </g>
        <g transform="translate(406.54 19.014)">
            <mask id="h" fill="#fff">
                <use xlink:href="#f"/>
            </mask>
            <path d="m14.6.314-4.157 5.638a3.136 3.136 0 0 1-2.618 1.27L.8 7.011a.755.755 0 0 0-.706.408.746.746 0 0 0 .056.809l4.104 5.676c.602.832.754 1.905.406 2.87l-2.373 6.581c-.1.28-.027.5.052.638.118.201.32.344.54.383a.77.77 0 0 0 .37-.03l6.695-2.13a3.153 3.153 0 0 1 2.87.503v.001L18.37 27c.105.08.219.132.339.153a.798.798 0 0 0 .638-.177.731.731 0 0 0 .268-.58l.033-6.992a3.107 3.107 0 0 1 1.368-2.56l5.808-3.936c.358-.243.35-.6.33-.742a.75.75 0 0 0-.523-.624l-6.674-2.19a3.119 3.119 0 0 1-2.024-2.086L15.965.553a.75.75 0 0 0-.607-.54.852.852 0 0 0-.143-.013.739.739 0 0 0-.614.314" fill="url(#g)" mask="url(#h)"/>
        </g>
        <g fill="#FFF">
            <path d="M412.841 34.561a.173.173 0 0 1-.145-.144 3.94 3.94 0 0 0-.737-1.778l-1.562-2.1a.167.167 0 0 1 .04-.238.18.18 0 0 1 .247.039l1.562 2.1c.423.568.7 1.235.8 1.93a.172.172 0 0 1-.15.192.19.19 0 0 1-.055 0M415.55 40.647a.176.176 0 0 1-.138-.116.17.17 0 0 1 .114-.215l.896-.278a4.65 4.65 0 0 1 2.146-.14 4.583 4.583 0 0 1 1.966.842c.077.058.091.165.032.24a.181.181 0 0 1-.248.03 4.22 4.22 0 0 0-1.811-.775 4.282 4.282 0 0 0-1.977.13l-.896.277a.18.18 0 0 1-.084.005M423.832 43.44a1.453 1.453 0 0 1-.398-.13.168.168 0 0 1-.077-.23.18.18 0 0 1 .238-.074c.333.165.728.147 1.055-.046.328-.193.517-.518.519-.892l.017-3.523c.007-1.428.74-2.76 1.96-3.565l3.01-1.984c.35-.231.524-.61.465-1.016a1.043 1.043 0 0 0-.736-.854l-3.46-1.104c-1.402-.447-2.486-1.533-2.9-2.904l-1.02-3.382a1.054 1.054 0 0 0-.856-.741 1.085 1.085 0 0 0-1.066.413l-2.155 2.84a4.54 4.54 0 0 1-3.752 1.77l-3.642-.105a1.111 1.111 0 0 0-.603.152.18.18 0 0 1-.243-.055.168.168 0 0 1 .057-.236c.237-.141.513-.212.8-.203l3.641.106c1.36.04 2.652-.57 3.457-1.63l2.154-2.841c.328-.431.869-.641 1.413-.549.545.093.98.47 1.134.983l1.021 3.382c.38 1.263 1.38 2.263 2.672 2.675l3.458 1.105c.526.167.9.6.977 1.13a1.369 1.369 0 0 1-.617 1.347l-3.01 1.984a3.963 3.963 0 0 0-1.805 3.284l-.017 3.522c-.002.489-.26.93-.688 1.183-.31.183-.664.246-1.003.188"/>
        </g>
        <g transform="translate(160.262 18.109)">
            <mask id="k" fill="#fff">
                <use xlink:href="#i"/>
            </mask>
            <path d="M27.081 7.698.151 127.09c-.75 3.319 1.376 6.606 4.714 7.293l94.344 19.408c3.552.731 7.006-1.62 7.622-5.188l20.707-119.986c.787-4.56-2.144-8.936-6.667-9.952L38.89.243A9.936 9.936 0 0 0 36.713 0c-4.518 0-8.596 3.114-9.63 7.698" fill="url(#j)" mask="url(#k)"/>
        </g>
        <path d="m168.52 127.36-3.574 15.848a6.379 6.379 0 0 0 4.75 7.606l10.485 2.5-11.66-25.954zM170.206 119.885l-.579 2.566.579-2.566z" stroke="#FFF" stroke-width="2" stroke-linecap="round"/>
        <path d="M200.442 17.384c10.855 4.033 48.3 17.373 80.681 22.088a2.65 2.65 0 0 1 2.24 3.065l-20.536 120.618a3.054 3.054 0 0 1-3.505 2.499c-13.567-2.218-69.393-11.553-88.596-18.029a2.416 2.416 0 0 1-1.587-2.807l27.498-125.36a2.872 2.872 0 0 1 3.805-2.074" fill="#91B3FA"/>
        <path d="M200.944 20.746c10.446 3.88 46.48 16.718 77.644 21.255a2.55 2.55 0 0 1 2.154 2.95L260.98 161.027a2.94 2.94 0 0 1-3.374 2.405c-13.055-2.134-66.78-11.118-85.26-17.35a2.325 2.325 0 0 1-1.526-2.701l26.462-120.64a2.764 2.764 0 0 1 3.662-1.995" fill="#BDD0FB"/>
        <path d="M271.067 50.865c1.176.265 2.211.108 2.3-.35.089-.456-.796-1.063-1.968-1.348l-27.105-6.6c-1.172-.286-2.067.017-1.99.673.078.656 1.103 1.41 2.28 1.674l26.483 5.951zM243.26 47.15c-1.172-.285-2.067.019-1.99.674.078.657 1.104 1.41 2.28 1.674l26.483 5.952c1.176.264 2.212.107 2.3-.35.09-.457-.796-1.063-1.968-1.349l-27.106-6.6zM242.21 51.802c-1.171-.285-2.066.018-1.989.674.078.656 1.103 1.409 2.28 1.673l26.482 5.952c1.177.265 2.212.107 2.301-.35.09-.457-.796-1.064-1.967-1.349l-27.106-6.6zM269.69 70.349c1.176.264 2.198.104 2.27-.357.072-.46-.829-1.06-2.003-1.334L203.156 53.09c-1.175-.274-1.85.09-1.502.806.347.716 1.594 1.52 2.77 1.784l65.266 14.668zM202.122 57.675c-1.175-.273-1.85.09-1.503.806.348.717 1.595 1.52 2.77 1.784l65.268 14.668c1.176.265 2.197.104 2.27-.356.072-.46-.83-1.062-2.004-1.335l-66.801-15.567zM211.173 72.5c.133 1.774-.544 5.093-1.316 8.622-.163.771-1.097.928-1.906 1.103l-.021.005-9.27-1.878c-.956-.2-1.62-.977-1.55-1.816l.683-7.948a.934.934 0 0 1 .369-.679c.262-.21.614-.316.988-.266.8.09 1.895.212 3.112.344 1.936.195 4.22.428 5.944.66.501.078.945.148 1.335.217.319.052.62.175.87.362.432.313.72.779.762 1.275m-.493-2.014a2.845 2.845 0 0 0-.972-.371c-.012-.009-.023-.006-.036-.015-.286-.048-.615-.097-.968-.152-1.741-.26-4.174-.513-6.367-.73-1.206-.134-2.3-.248-3.089-.341a2.103 2.103 0 0 0-1.58.43c-.383.314-.61.737-.649 1.217l-.673 7.936c-.106 1.232.822 2.36 2.157 2.631l9.275 1.857c.002.01.013.008.023.006 1.297.246 2.554-.499 2.805-1.674.784-3.587 1.482-6.957 1.337-8.837-.057-.812-.543-1.53-1.263-1.957" fill="#FFF"/>
        <path d="M199.998 70.613c1.976.24 6.3.62 8.317.979.854.152 1.503.81 1.562 1.585.113 1.507-.486 4.354-1.058 6.978-.172.785-1.019 1.277-1.905 1.099l-7.41-1.49c-.91-.182-1.55-.949-1.48-1.774l.54-6.343c.055-.656.7-1.123 1.434-1.034M218.887 76.74c-1.178-.255-2.075.52-1.992 1.72l.035.502c.083 1.2 1.12 2.368 2.303 2.594l43.995 8.404c1.184.227 2.285-.37 2.447-1.325.16-.955-.67-1.945-1.85-2.2l-44.938-9.696z" fill="#FFF"/>
        <g transform="translate(198.29 67.002)">
            <mask id="n" fill="#fff">
                <use xlink:href="#l"/>
            </mask>
            <path d="M11.709.225 5.042 9.586a.482.482 0 0 1-.848-.122l-1.238-3.68a1.5 1.5 0 0 0-1.918-.922 1.537 1.537 0 0 0-.994 1.816c1.31 5.303 3.904 6.903 3.904 6.903C10.004 9.555 12.007 3.76 12.663.635c.079-.37-.22-.635-.528-.635a.516.516 0 0 0-.426.225" fill="url(#m)" mask="url(#n)"/>
        </g>
        <g fill="#FFF">
            <path d="M206.864 92.317c.134 1.746-.548 5.007-1.324 8.483-.164.76-1.032 1.236-1.92 1.068 0 0-.012.002-.014-.008l-9.323-1.83c-.96-.185-1.628-.952-1.556-1.779l.687-7.817a.927.927 0 0 1 .37-.674c.264-.207.63-.306.992-.264.809.098 1.906.212 3.13.34 1.946.194 4.244.43 5.976.659.504.077.96.142 1.341.212.322.051.615.173.863.347.434.308.737.774.778 1.263m-.495-1.983a2.91 2.91 0 0 0-.978-.366c-.012-.008-.023-.006-.035-.014-.287-.047-.619-.096-.975-.15-1.76-.254-4.193-.505-6.4-.729a249.62 249.62 0 0 1-3.105-.325 2.142 2.142 0 0 0-1.587.423 1.702 1.702 0 0 0-.654 1.189l-.674 7.825c-.11 1.203.824 2.324 2.167 2.59l9.324 1.83c.01-.002.013.008.023.006 1.303.242 2.568-.491 2.82-1.649.787-3.532 1.488-6.85 1.34-8.713-.055-.8-.544-1.508-1.266-1.917"/>
            <path d="M195.63 90.457c1.988.235 6.335.61 8.362.964.858.15 1.51.797 1.57 1.561.114 1.484-.488 4.287-1.064 6.871-.172.774-1.024 1.258-1.914 1.083l-7.449-1.467c-.916-.18-1.558-.935-1.487-1.748l.542-6.246c.055-.646.704-1.106 1.44-1.018M214.619 96.49c-1.185-.25-2.086.512-2.003 1.695l.035.494c.084 1.182 1.126 2.333 2.316 2.555l44.224 8.276c1.19.223 2.296-.364 2.459-1.305.162-.94-.674-1.916-1.859-2.166l-45.172-9.55z"/>
        </g>
        <g transform="translate(194.668 86.922)">
            <mask id="q" fill="#fff">
                <use xlink:href="#o"/>
            </mask>
            <path d="M11.709.225 5.043 9.587a.483.483 0 0 1-.848-.122l-1.239-3.68a1.498 1.498 0 0 0-1.917-.922 1.537 1.537 0 0 0-.995 1.816c1.31 5.303 3.904 6.902 3.904 6.902C10.004 9.555 12.006 3.76 12.664.635c.077-.37-.222-.635-.53-.635a.514.514 0 0 0-.425.225" fill="url(#p)" mask="url(#q)"/>
        </g>
        <g fill="#FFF">
            <path d="M202.338 111.325c.135 1.756-.545 5.017-1.323 8.492-.174.762-1.06 1.21-1.944 1.062l-9.312-1.83c-.962-.197-1.63-.964-1.56-1.79l.678-7.814a.94.94 0 0 1 .372-.663c.262-.218.629-.307 1.003-.268.797.102 1.906.213 3.116.334 1.948.204 4.257.438 5.98.667.5.067.958.132 1.339.203.32.05.625.18.888.363.433.308.72.756.763 1.244m-.49-1.962a3.143 3.143 0 0 0-1.018-.39c-.297-.045-.62-.106-.983-.148-1.784-.26-4.297-.516-6.391-.731a159.073 159.073 0 0 1-3.117-.334c-.567-.063-1.152.094-1.575.432a1.68 1.68 0 0 0-.655 1.189l-.676 7.814c-.107 1.212.826 2.323 2.169 2.59l9.325 1.84s.01-.003.024.005c1.304.242 2.568-.491 2.82-1.648.786-3.532 1.485-6.861 1.34-8.713-.054-.789-.551-1.484-1.264-1.906"/>
            <path d="M191.102 109.473c1.988.236 6.335.61 8.362.964.859.15 1.51.796 1.57 1.56.114 1.485-.488 4.288-1.064 6.871-.173.774-1.024 1.258-1.914 1.083l-7.449-1.467c-.916-.18-1.558-.935-1.488-1.747l.542-6.246c.056-.646.705-1.106 1.441-1.018M210.09 115.506c-1.184-.25-2.085.512-2.002 1.694l.036.494c.083 1.183 1.125 2.332 2.315 2.555l44.225 8.275c1.19.223 2.297-.365 2.459-1.305.162-.94-.674-1.916-1.858-2.166l-45.174-9.547z"/>
        </g>
        <g transform="translate(190.14 105.936)">
            <mask id="t" fill="#fff">
                <use xlink:href="#r"/>
            </mask>
            <path d="M11.709.225 5.042 9.587a.483.483 0 0 1-.848-.123l-1.238-3.68a1.5 1.5 0 0 0-1.918-.922 1.538 1.538 0 0 0-.994 1.816c1.31 5.303 3.904 6.903 3.904 6.903C10.004 9.554 12.006 3.76 12.664.635c.077-.37-.222-.635-.53-.635a.514.514 0 0 0-.425.225" fill="url(#s)" mask="url(#t)"/>
        </g>
        <g fill="#FFF">
            <path d="M197.81 130.344c.135 1.757-.546 5.016-1.323 8.492-.165.749-1.02 1.233-1.92 1.067-.002-.01-.013-.008-.013-.008l-9.324-1.839c-.96-.186-1.629-.953-1.557-1.779l.687-7.815a.938.938 0 0 1 .373-.664c.26-.217.629-.306.992-.264.805.088 1.906.211 3.127.33 1.948.203 4.246.44 5.978.668a32.6 32.6 0 0 1 1.34.203c.323.06.628.19.877.365.433.308.72.756.763 1.244m-.48-1.964a3.06 3.06 0 0 0-1.026-.388c-.299-.045-.633-.104-.985-.148-1.75-.256-4.183-.507-6.38-.733a119.88 119.88 0 0 1-3.117-.334 2.145 2.145 0 0 0-1.584.434 1.707 1.707 0 0 0-.655 1.188l-.677 7.814c-.107 1.212.825 2.323 2.168 2.59l9.325 1.84c.011-.004.011-.004.024.004 1.303.243 2.566-.501 2.828-1.66.789-3.52 1.477-6.848 1.332-8.699-.055-.8-.54-1.486-1.253-1.908"/>
            <path d="M186.579 128.488c1.987.236 6.334.611 8.36.965.86.15 1.511.797 1.57 1.56.115 1.484-.488 4.287-1.063 6.87-.173.774-1.024 1.258-1.914 1.083l-7.449-1.466c-.916-.18-1.558-.935-1.488-1.748l.543-6.244c.056-.647.704-1.107 1.44-1.02M205.566 134.52c-1.185-.25-2.086.513-2.002 1.695l.035.494c.083 1.183 1.125 2.332 2.315 2.555l44.222 8.274c1.19.223 2.297-.364 2.46-1.305.162-.94-.675-1.915-1.859-2.165l-45.171-9.547z"/>
        </g>
        <g transform="translate(185.614 124.95)">
            <mask id="w" fill="#fff">
                <use xlink:href="#u"/>
            </mask>
            <path d="M11.709.225 5.043 9.586a.483.483 0 0 1-.849-.122l-1.238-3.68a1.5 1.5 0 0 0-1.918-.923 1.538 1.538 0 0 0-.993 1.817c1.308 5.303 3.903 6.903 3.903 6.903C10.004 9.554 12.006 3.76 12.664.635c.077-.37-.222-.635-.53-.635a.514.514 0 0 0-.425.225" fill="url(#v)" mask="url(#w)"/>
        </g>
        <g transform="translate(237.223 9.054)">
            <mask id="z" fill="#fff">
                <use xlink:href="#x"/>
            </mask>
            <path d="M4.676.015c-1.812.117-3.28 1.44-3.512 3.139l-1.016 7.45L0 11.641l9.332 2.845s.58-.474 1.309-1.278c1.905-2.078 4.849-6.365 1.217-10.13C9.517.648 7.1 0 5.189 0c-.175 0-.347.005-.513.015m1.404 8.87c-1.314-.276-2.14-1.521-1.837-2.763.29-1.25 1.598-2.036 2.902-1.758 1.317.286 2.14 1.52 1.85 2.771-.258 1.078-1.257 1.808-2.37 1.808-.179 0-.362-.019-.545-.058" fill="url(#y)" mask="url(#z)"/>
        </g>
        <path d="M239.78 15.889c-.27-.03-.516.144-.549.392l-.192 1.317a.429.429 0 0 0 .22.44c.066.038.128.058.2.065.272.04.518-.135.55-.382l.191-1.328c.046-.24-.147-.474-.42-.504m7.113-4.39a8.34 8.34 0 0 0-3.696-.62c-1.87.11-3.405 1.43-3.645 3.125l-.141 1.004a.427.427 0 0 0 .218.439c.056.041.13.058.2.065.274.04.52-.135.553-.383l.15-1.005c.181-1.273 1.324-2.266 2.729-2.345a7.32 7.32 0 0 1 3.228.535c.244.109.543.008.648-.223.12-.223-.003-.492-.244-.591" fill="#91B3FA"/>
        <g transform="translate(223.642 17.203)">
            <mask id="C" fill="#fff">
                <use xlink:href="#A"/>
            </mask>
            <path d="M.96 2.04 0 6.214l34.602 8.272.676-4.067c.214-1.293-.608-2.535-1.902-2.866L4.233.086A2.716 2.716 0 0 0 3.556 0C2.341 0 1.24.82.96 2.04" fill="url(#B)" mask="url(#C)"/>
        </g>
        <g fill="#91B3FA">
            <path d="m234.973 19.992 1.27.289-1.27-.289zM225.68 22.517a.477.477 0 0 1-.205-.505l.39-1.75a2.74 2.74 0 0 1 1.205-1.725 2.697 2.697 0 0 1 2.062-.36l4.673 1.062a.476.476 0 0 1-.207.93l-4.674-1.063a1.791 1.791 0 0 0-2.138 1.365l-.39 1.75a.473.473 0 0 1-.717.296"/>
            <path d="m215.073 19.65 51.69 11.741c1.858.422 3.146 2.133 3.051 4.053l-.013.265c-.105 2.103-2.062 3.603-4.098 3.14l-53.03-12.046a2.208 2.208 0 0 1-1.628-2.74l.649-2.37a2.853 2.853 0 0 1 3.379-2.043"/>
        </g>
        <g transform="translate(335.915 218.21)">
            <mask id="F" fill="#fff">
                <use xlink:href="#D"/>
            </mask>
            <path d="M11.455 0C5.13 0 0 5.134 0 11.467v217.607h114.085V11.467C114.085 5.134 108.956 0 102.63 0H11.455z" fill="url(#E)" mask="url(#F)"/>
        </g>
        <g transform="translate(323.24 218.21)">
            <mask id="I" fill="#fff">
                <use xlink:href="#G"/>
            </mask>
            <path d="M11.455 0C5.129 0 0 5.134 0 11.467v217.607h114.085V11.467C114.085 5.134 108.957 0 102.63 0H11.455z" fill="url(#H)" mask="url(#I)"/>
        </g>
        <g transform="translate(95.07 354.93)">
            <mask id="L" fill="#fff">
                <use xlink:href="#J"/>
            </mask>
            <path d="M11.464 0C5.133 0 0 5.114 0 11.424v80.93h84.205v-80.93C84.205 5.114 79.072 0 72.741 0H11.464z" fill="url(#K)" mask="url(#L)"/>
        </g>
        <g transform="translate(82.394 354.93)">
            <mask id="O" fill="#fff">
                <use xlink:href="#M"/>
            </mask>
            <path d="M11.465 0C5.133 0 0 5.114 0 11.423v80.931h84.205v-80.93C84.205 5.114 79.072 0 72.741 0H11.465z" fill="url(#N)" mask="url(#O)"/>
        </g>
        <g transform="translate(368.511 210.966)">
            <mask id="Q" fill="#fff">
                <use xlink:href="#P"/>
            </mask>
            <path d="M.027 7.508a.892.892 0 0 0-.027.25c5.056.538 9.532.42 11.706.238.01-.032.02-.064.028-.098.243-1.195-.734-3.33-2.25-7.705L6.847 0S1.367 2.544.027 7.508" fill="#4C4FF9" mask="url(#Q)"/>
        </g>
        <g transform="translate(368.511 218.21)">
            <mask id="T" fill="#fff">
                <use xlink:href="#R"/>
            </mask>
            <path d="M.8 1.227c2.076.345 7.02 1.017 10.13.182.406-.108.723-.535.84-1.083C9.585.575 5.085.738 0 0c.007.61.342 1.15.8 1.227" fill="url(#S)" mask="url(#T)"/>
        </g>
        <g transform="translate(373.944 206.439)">
            <mask id="W" fill="#fff">
                <use xlink:href="#U"/>
            </mask>
            <path d="m0 0 1.126 5.553c.083.406.388.711.758.747a7.39 7.39 0 0 0 1.744-.029c.581-.087.987-.692.883-1.341L3.729 0H0z" fill="url(#V)" mask="url(#W)"/>
        </g>
        <g transform="translate(397.485 218.21)">
            <mask id="Z" fill="#fff">
                <use xlink:href="#X"/>
            </mask>
            <path d="M.01 1.092c.009.4.238.72.519.719l15.142-.128c.483-.003.766-.73.557-1.305-1.986.213-7.042.689-11.305.534C2.164.812.738.39 0 0-.001.356 0 .718.009 1.092" fill="url(#Y)" mask="url(#Z)"/>
        </g>
        <g transform="translate(397.485 210.966)">
            <mask id="ab" fill="#fff">
                <use xlink:href="#aa"/>
            </mask>
            <path d="M0 7.395c.74.312 2.173.65 4.943.73 4.282.123 9.36-.258 11.355-.428-.02-.04-.035-.08-.06-.118C14.893 5.64 11.473 1.78 4.713.106L1.47 0S.027 2.593 0 7.395" fill="#4C4FF9" mask="url(#ab)"/>
        </g>
        <g transform="translate(397.485 205.533)">
            <mask id="ae" fill="#fff">
                <use xlink:href="#ac"/>
            </mask>
            <path d="M0 .729c.038.224.518 3.633.703 4.954a.705.705 0 0 0 .641.592c.595.061 1.558.117 2.4-.032.454-.08.783-.456.783-.893V0L0 .729z" fill="url(#ad)" mask="url(#ae)"/>
        </g>
        <g transform="translate(372.133 135.815)">
            <mask id="ah" fill="#fff">
                <use xlink:href="#af"/>
            </mask>
            <path d="M.87 74.245s3.452 0 5.177-.57c0 0 5.381-44.674 7.121-57.457.066-.482.759-.503.854-.027 2.147 10.756 10.583 52.93 11.585 56.912 0 0 2.876 1.142 5.178 0 0 0-4.602-61.11-8.054-71.961L3.171 0S-2.006 45.689.87 74.245" fill="url(#ag)" mask="url(#ah)"/>
        </g>
        <g transform="translate(364.89 82.394)">
            <mask id="ak" fill="#fff">
                <use xlink:href="#ai"/>
            </mask>
            <path d="M.075 1.232c-.57 5.7 2.286 17.673 2.286 17.673 2.858 4.561 8 35.347 8 35.347 6.287 3.42 19.43 1.14 19.43 1.14 3.429-10.832 8-35.347 8-35.347l1.143-17.673C32.076.547 24.488 0 17.85 0 7.894 0 .075 1.232.075 1.232" fill="url(#aj)" mask="url(#ak)"/>
        </g>
        <g transform="translate(378.47 67.907)">
            <mask id="an" fill="#fff">
                <use xlink:href="#al"/>
            </mask>
            <path d="M0 14.226s5.857 2.7 9.96-.116L9.077 4.07 2.097 0 0 14.226z" fill="url(#am)" mask="url(#an)"/>
        </g>
        <g transform="translate(344.064 56.137)">
            <mask id="aq" fill="#fff">
                <use xlink:href="#ao"/>
            </mask>
            <path d="M31.685 47.082c.22-3.604-6.117-19.636-6.117-19.636C1.101 25.265 8.488 2.303 8.488 2.303L6.827 0c-24.514 33.9 24.857 47.082 24.857 47.082" fill="url(#ap)" mask="url(#aq)"/>
        </g>
        <g transform="translate(350.402 48.893)">
            <mask id="at" fill="#fff">
                <use xlink:href="#ar"/>
            </mask>
            <path d="M2.92.06C-.54.587.035 6.936.035 6.936s.577 2.117 1.73 2.117 6.92-3.174 6.342-4.762C7.575 2.824 6.55 0 3.664 0c-.236 0-.484.019-.745.06" fill="url(#as)" mask="url(#at)"/>
        </g>
        <g transform="translate(392.958 57.042)">
            <mask id="aw" fill="#fff">
                <use xlink:href="#au"/>
            </mask>
            <path d="M23.203 2.303s7.386 22.962-17.08 25.144c0 0-6.337 16.031-6.117 19.635 0 0 49.37-13.182 24.855-47.082l-1.658 2.303z" fill="url(#av)" mask="url(#aw)"/>
        </g>
        <g transform="translate(409.256 50.704)">
            <mask id="az" fill="#fff">
                <use xlink:href="#ax"/>
            </mask>
            <path d="M.04 4.292C-.536 5.88 5.23 9.054 6.383 9.054c1.153 0 1.73-2.116 1.73-2.116S8.69.588 5.23.058A4.984 4.984 0 0 0 4.485 0C1.599 0 .573 2.825.04 4.292" fill="url(#ay)" mask="url(#az)"/>
        </g>
        <g transform="translate(376.66 60.664)">
            <mask id="aC" fill="#fff">
                <use xlink:href="#aA"/>
            </mask>
            <path d="m0 3.356 3.618 9.765c5.177 2.967 11.107 3.23 11.72-.424C15.951 9.044 11.167 0 11.167 0L0 3.356z" fill="url(#aB)" mask="url(#aC)"/>
        </g>
        <g transform="translate(370.322 53.42)">
            <mask id="aF" fill="#fff">
                <use xlink:href="#aD"/>
            </mask>
            <path d="M14.376 1.896a.364.364 0 0 1-.58.004C13.166 1.072 11.506-.648 9.2.394c-2.158.976-2.4 2.569-2.371 3.372.009.236-.2.42-.431.376-1.09-.21-3.708-.39-4.93 2.316-1.005 2.23-.351 3.492.244 4.109.193.2.109.529-.156.61-.717.222-1.642.834-1.55 2.527.128 2.34 2.724 2.134 3.463 2.027a.367.367 0 0 1 .325.116c.634.707 3.489 3.708 6.578 4.07.267.032.475-.235.388-.491l-1.337-3.92a.37.37 0 0 1 .198-.458l.664-.297a.37.37 0 0 0 .16-.54c-.38-.581-1.087-1.77-1.314-2.81 0 0-.848-.546 2.16-1.272 3.006-.726 7.49-1.852 8.433-4.432C20.394 3.862 19.292 0 17.151 0c-.795 0-1.732.531-2.775 1.896" fill="url(#aE)" mask="url(#aF)"/>
        </g>
        <g transform="translate(377.565 67.907)">
            <mask id="aI" fill="#fff">
                <use xlink:href="#aG"/>
            </mask>
            <path d="M.013.903c-.238 2.254 2.94 3.265 4.514 2.425l-1.01-2.003S1.898 0 .857 0C.42 0 .083.235.013.903" fill="url(#aH)" mask="url(#aI)"/>
        </g>
        <g transform="translate(210.966 311.469)">
            <mask id="aL" fill="#fff">
                <use xlink:href="#aJ"/>
            </mask>
            <path d="M11.465 0C5.133 0 0 5.146 0 11.494v124.32h96.881V11.495C96.881 5.146 91.748 0 85.416 0h-73.95z" fill="url(#aK)" mask="url(#aL)"/>
        </g>
        <g transform="translate(196.479 311.469)">
            <mask id="aO" fill="#fff">
                <use xlink:href="#aM"/>
            </mask>
            <path d="M11.466 0C5.134 0 0 5.146 0 11.494v124.32h96.881V11.495C96.881 5.146 91.748 0 85.416 0h-73.95z" fill="url(#aN)" mask="url(#aO)"/>
        </g>
        <g transform="translate(239.94 249.9)">
            <mask id="aR" fill="#fff">
                <use xlink:href="#aP"/>
            </mask>
            <path d="M0 11.379c3.505 6.703 7.398 10.404 11.294 12.162.695-4.176 3.18-7.643 5.004-9.702C9.349 9.96 7.535 0 7.535 0L0 11.379z" fill="url(#aQ)" mask="url(#aR)"/>
        </g>
        <g transform="translate(250.805 261.67)">
            <mask id="aU" fill="#fff">
                <use xlink:href="#aS"/>
            </mask>
            <path d="M4.937 1.983C3.137 3.982.687 7.347 0 11.4c12.215 5.429 24.447-8.235 24.447-8.235L21.83 0C14.22 4.351 8.782 4.096 4.937 1.983" fill="url(#aT)" mask="url(#aU)"/>
        </g>
        <g transform="translate(272.535 255.332)">
            <mask id="aX" fill="#fff">
                <use xlink:href="#aV"/>
            </mask>
            <path d="M3.76 2.076c-1.095-1.658-2.091-.53-2.091-.53-3.09 2.857-.942 6.576-.942 6.576 1.05 1.68 5.85 3.217 8.23-.23 2.354-3.41-.055-6.399-.964-7.605C7.84.084 7.62 0 7.359 0c-1.296 0-3.6 2.076-3.6 2.076" fill="url(#aW)" mask="url(#aX)"/>
        </g>
        <g transform="translate(274.346 258.048)">
            <mask id="ba" fill="#fff">
                <use xlink:href="#aY"/>
            </mask>
            <path d="M1.93.024c-.316.084-.492.368-.392.635l.723 1.934c-.265.03-.561.029-.762-.074-.062-.03-.248-.125-.305-.505-.042-.277-.336-.472-.67-.438-.328.035-.56.29-.52.566.11.72.543 1.077.887 1.249.347.174.738.23 1.098.23.625 0 1.162-.169 1.254-.199.291-.097.445-.37.351-.622L2.681.355C2.6.139 2.365 0 2.11 0c-.06 0-.121.008-.182.024" fill="url(#aZ)" mask="url(#ba)"/>
        </g>
        <g transform="translate(163.883 338.632)">
            <mask id="bc" fill="#fff">
                <use xlink:href="#bb"/>
            </mask>
            <path d="M.04 2.046C.682 5.26 2.794 13.75 7.924 18.776a.793.793 0 0 0 1.13.003c-1.3-1.299-2.91-3.52-4.793-7.291C1.367 5.692.831 2.118.911 0 .226.396-.124 1.23.04 2.046" mask="url(#bc)"/>
        </g>
        <g transform="translate(164.789 337.726)">
            <mask id="bf" fill="#fff">
                <use xlink:href="#bd"/>
            </mask>
            <path d="M.028.855.007.87C-.069 3.02.435 6.644 3.155 12.524c1.77 3.825 3.283 6.078 4.504 7.396a.883.883 0 0 0 .201-.367c.906-3.26 2.818-12.317-1.627-18.805 0 0-1.328-.747-3.112-.748-.945 0-2.02.21-3.093.855" fill="url(#be)" mask="url(#bf)"/>
        </g>
        <g transform="translate(169.316 334.105)">
            <mask id="bi" fill="#fff">
                <use xlink:href="#bg"/>
            </mask>
            <path d="M3.48.491.42 3.621a1.425 1.425 0 0 0-.295 1.59 4.001 4.001 0 0 0 1.558 1.787 1.702 1.702 0 0 0 2-.175l3.064-2.735c.54-.482.653-1.247.272-1.846L6.062.737C5.755.253 5.215 0 4.672 0c-.433 0-.868.16-1.191.491" fill="url(#bh)" mask="url(#bi)"/>
        </g>
        <g transform="translate(269.819 308.753)">
            <mask id="bk" fill="#fff">
                <use xlink:href="#bj"/>
            </mask>
            <path d="M8.17 7.604C4.605 12.885 1.829 15.1 0 16.08c.65.376 1.517.255 2.133-.284C4.555 13.67 10.761 7.71 12.644.945c.124-.447-.128-.844-.518-.945-.5 1.727-1.634 4.17-3.955 7.604" mask="url(#bk)"/>
        </g>
        <g transform="translate(266.197 307.847)">
            <mask id="bn" fill="#fff">
                <use xlink:href="#bl"/>
            </mask>
            <path d="M14.985.025C11.8.82 3.25 3.568 0 10.763c0 0 .067 3.657 3.158 5.523.007.005.016.007.024.012 1.84-.992 4.636-3.233 8.228-8.577 2.337-3.477 3.48-5.948 3.982-7.696a.802.802 0 0 0-.2-.025.88.88 0 0 0-.207.025" fill="url(#bm)" mask="url(#bn)"/>
        </g>
        <g transform="translate(261.67 312.374)">
            <mask id="bq" fill="#fff">
                <use xlink:href="#bo"/>
            </mask>
            <path d="m2 .272-1.39.984a1.433 1.433 0 0 0-.029 2.326l3.3 2.462c.455.339 1.07.39 1.575.127.84-.439 1.33-1.029 1.613-1.545a1.425 1.425 0 0 0-.333-1.77L3.821.356A1.482 1.482 0 0 0 2 .272" fill="url(#bp)" mask="url(#bq)"/>
        </g>
        <g transform="translate(172.032 286.117)">
            <mask id="bt" fill="#fff">
                <use xlink:href="#br"/>
            </mask>
            <path d="M23.849 29.042s-6.679 1.02-10.812 3.441C8.904 34.903 0 48.318 0 48.318s2.325 4.424 5.131 5.103l25.345-17.6 20.228-23.574-.96-10.935L33.578 0S27.67 20.174 23.85 29.042" fill="url(#bs)" mask="url(#bt)"/>
        </g>
        <g transform="translate(203.722 284.306)">
            <mask id="bw" fill="#fff">
                <use xlink:href="#bu"/>
            </mask>
            <path d="M0 5.538s1.584 14.52 19.842 12.071c18.257-2.448 20.552-5.436 20.552-5.436s-1.585 9.273 18.378 20.423c0 0 3.035-2.297 3.703-4.905L48.485 4.572C46.538 1.54 44.734.741 41.18 1.298 33.324 2.53 18.613 4.136 16.386 3.755L1.733 0 0 5.538z" fill="url(#bv)" mask="url(#bw)"/>
        </g>
        <g transform="translate(201.006 243.561)">
            <mask id="bz" fill="#fff">
                <use xlink:href="#bx"/>
            </mask>
            <path d="M19.048.037C13.76.31 5.401 2.84 0 7.845c1.66 1.845 4.214 4.845 6.118 7.808 1.7-1.608 4.144-2.947 7.583-3.805C10.728 23.035 7.214 33.694 2.932 43.6c-.267.621.038 1.338.672 1.56 3.313 1.163 13.084 3.932 20.922-.527L41.9 19.582a21.528 21.528 0 0 0 3.59-9.033l.686-4.52S31.882.002 20.552 0c-.508 0-1.01.012-1.504.037" fill="url(#by)" mask="url(#bz)"/>
        </g>
        <g transform="translate(195.573 251.71)">
            <mask id="bC" fill="#fff">
                <use xlink:href="#bA"/>
            </mask>
            <path d="M7.88 27.202c-.615 3.09 1.392 6.686 2.477 7.19.5.233 5.94-2.47 4.905-4.673-.78-1.657-3.445-3.206-4.717-3.871-1.108-2.2-5.527-12.094 1.154-18.14C9.735 4.784 7.102 1.823 5.389 0-1.034 5.703-3.387 14.66 7.88 27.202" fill="url(#bB)" mask="url(#bC)"/>
        </g>
        <g transform="translate(215.493 254.427)">
            <mask id="bF" fill="#fff">
                <use xlink:href="#bD"/>
            </mask>
            <path d="M0 .905 4.527 0 0 .905z" fill="url(#bE)" mask="url(#bF)"/>
        </g>
        <g transform="translate(227.264 237.223)">
            <mask id="bI" fill="#fff">
                <use xlink:href="#bG"/>
            </mask>
            <path d="M.164 8.787A1.423 1.423 0 0 0 .38 10.42c1.116 1.211 3.753 3.178 8.338 1.768.506-.155.87-.588.946-1.099l1.201-7.981L4.775 0 .164 8.787z" fill="url(#bH)" mask="url(#bI)"/>
        </g>
        <g transform="translate(228.169 228.169)">
            <mask id="bL" fill="#fff">
                <use xlink:href="#bJ"/>
            </mask>
            <path d="m0 2.961 3.405 8.617c4.873 2.618 10.453 2.85 11.03-.375C15.014 7.98 10.51 0 10.51 0L0 2.961z" fill="url(#bK)" mask="url(#bL)"/>
        </g>
        <g transform="translate(222.736 222.736)">
            <mask id="bO" fill="#fff">
                <use xlink:href="#bM"/>
            </mask>
            <path d="M13.07 1.723a.33.33 0 0 1-.527.004C11.969.973 10.459-.59 8.364.358c-1.962.888-2.182 2.335-2.156 3.066a.33.33 0 0 1-.391.34c-.992-.19-3.371-.353-4.482 2.107-.914 2.027-.32 3.174.222 3.735a.336.336 0 0 1-.142.555c-.652.2-1.493.758-1.41 2.297.117 2.127 2.477 1.94 3.15 1.843a.33.33 0 0 1 .295.105c.575.643 3.17 3.37 5.98 3.7a.338.338 0 0 0 .352-.447l-1.216-3.562a.337.337 0 0 1 .18-.418l.604-.269a.337.337 0 0 0 .144-.491c-.343-.53-.987-1.609-1.192-2.554 0 0-.771-.498 1.962-1.158 2.734-.659 6.81-1.682 7.667-4.028C18.541 3.51 17.537 0 15.591 0c-.722 0-1.574.483-2.521 1.723" fill="url(#bN)" mask="url(#bO)"/>
        </g>
        <g transform="translate(229.074 235.412)">
            <mask id="bR" fill="#fff">
                <use xlink:href="#bP"/>
            </mask>
            <path d="M.013.677c-.24 1.69 2.94 2.45 4.514 1.819L3.517.994S1.898 0 .857 0C.42 0 .083.176.013.677" fill="url(#bQ)" mask="url(#bR)"/>
        </g>
        <g transform="translate(81.489 431.891)">
            <mask id="bU" fill="#fff">
                <use xlink:href="#bS"/>
            </mask>
            <path d="M.019 13.877c-.24 2.7 1.87 5.042 4.614 5.154 9.325.383 29.271 1.127 36.428.813 1.077-.048 1.78-1.134 1.382-2.12a3.484 3.484 0 0 0-1.798-1.867L7.698.927 1.881 0S.63 6.974.019 13.877" fill="url(#bT)" mask="url(#bU)"/>
        </g>
        <g transform="translate(82.394 426.459)">
            <mask id="bX" fill="#fff">
                <use xlink:href="#bV"/>
            </mask>
            <path d="m0 1.306 1.018 8.46s5.85 2.686 9.847-.339L8.442 0 0 1.306z" fill="url(#bW)" mask="url(#bX)"/>
        </g>
        <g transform="translate(57.042 268.008)">
            <mask id="ca" fill="#fff">
                <use xlink:href="#bY"/>
            </mask>
            <path d="M1.022 37.453s-2.3-58.526 0 2.064c2.056 54.224 17.821 110.986 21.11 122.315a2.829 2.829 0 0 0 2.8 2.051c4.147-.143 7.607-1.199 9.373-1.929.75-.31 1.148-1.131.961-1.929-11.51-48.829-9.622-157.791-9.19-160.02L2.368 0 1.022 37.453z" fill="url(#bZ)" mask="url(#ca)"/>
        </g>
        <g transform="translate(41.65 435.513)">
            <mask id="cd" fill="#fff">
                <use xlink:href="#cb"/>
            </mask>
            <path d="M.06 13.023a2.936 2.936 0 0 0 2.592 3.515c3.08.301 7.824.69 11.622.664 1.751-.012 3.119-1.532 2.908-3.265C16.76 10.484 15.45 4.817 11.4.401L3.977 0S1.987 3.56.06 13.023" fill="url(#cc)" mask="url(#cd)"/>
        </g>
        <g transform="translate(43.46 424.648)">
            <mask id="cg" fill="#fff">
                <use xlink:href="#ce"/>
            </mask>
            <path d="M0 .507 2.295 13.54s2.27 1.758 6.76.483L7.958 0 0 .507z" fill="url(#cf)" mask="url(#cg)"/>
        </g>
        <g transform="translate(33.501 265.292)">
            <mask id="cj" fill="#fff">
                <use xlink:href="#ch"/>
            </mask>
            <path d="M3.665 6.02c-9.52 57.382 2.065 141.826 5.973 158.355a2.578 2.578 0 0 0 2.084 1.956c1.744.29 4.616.525 7.447-.296a2.365 2.365 0 0 0 1.7-2.176c.525-13.362-.42-95.392 8.453-127.811a7.37 7.37 0 0 1 2.843-4.063L49.384 19.76 50.704 0 3.665 6.02z" fill="url(#ci)" mask="url(#cj)"/>
        </g>
        <g transform="translate(33.501 157.545)">
            <mask id="cm" fill="#fff">
                <use xlink:href="#ck"/>
            </mask>
            <path d="M63.991 4.646c-28.43-.47-59.798 7.46-59.798 7.46C-4.281 61.53 2.71 118.535 2.71 118.535c22.01 5.77 46.837-3.527 46.837-3.527 3.658-20.658 20.726-78.795 20.726-78.795 13.89-1.723 25.333-5.729 34.756-11.025C97.842 16.861 94.454 6.264 92.982 0 82.93 3.122 72.759 4.79 63.99 4.646" fill="url(#cl)" mask="url(#cm)"/>
        </g>
        <g transform="translate(126.76 117.706)">
            <mask id="cp" fill="#fff">
                <use xlink:href="#cn"/>
            </mask>
            <path d="M48.876.38C44.673 18.22 22.638 32.683 0 39.753c1.479 6.326 4.882 17.028 12.103 25.438C49.673 43.964 55.23 2.175 55.23 2.175 53.79.425 52.151 0 50.9 0c-1.184 0-2.023.38-2.023.38" fill="url(#co)" mask="url(#cp)"/>
        </g>
        <g transform="translate(175.654 90.543)">
            <mask id="cs" fill="#fff">
                <use xlink:href="#cq"/>
            </mask>
            <path d="M.468 17.963c-1.069 1.496.019 9.367.087 11.204C2.51 33 5.832 31.573 5.545 30.635c0 0 3.27-.025 5.563-3.372 1.211-1.77 2.493-4.03 3.432-5.769.936-1.733 1.232-3.767.747-5.671-.64-2.515-2.005-4.269-3.123-6.347l5.35-5.729S19.05 1.89 17.186 0c0 0-11.03 9.992-16.718 17.963" fill="url(#cr)" mask="url(#cs)"/>
        </g>
        <g transform="translate(179.276 103.22)">
            <mask id="cv" fill="#fff">
                <use xlink:href="#ct"/>
            </mask>
            <path d="M1.481 4.295 0 8.57l4.207 5.011s1.415-8.484 2.466-10.32C7.724 1.425 7.179.537 6.2 0L1.481 4.295z" fill="url(#cu)" mask="url(#cv)"/>
        </g>
        <g transform="translate(7.243 170.221)">
            <mask id="cy" fill="#fff">
                <use xlink:href="#cw"/>
            </mask>
            <path d="M0 40.899c4.996.37 14.088 1.673 22.987 6.183C24.943 36.286 41.65 27.514 41.65 27.514L30.79 0S4.348 18.034 0 40.899" fill="url(#cx)" mask="url(#cy)"/>
        </g>
        <g transform="translate(6.338 210.966)">
            <mask id="cB" fill="#fff">
                <use xlink:href="#cz"/>
            </mask>
            <path d="M4.045 21.515c17.656 32.044 65.673-1.77 65.673-1.77l-3.952-7.307s-29.873 16.749-39.952 2.447c-2.093-2.97-2.593-5.922-2.078-8.735C14.781 1.664 5.634.367.606 0-.713 6.855-.015 14.146 4.045 21.515" fill="url(#cA)" mask="url(#cB)"/>
        </g>
        <path d="m67.973 244.701 16.404-57.063c.186-.647.74-1.12 1.412-1.198a720.55 720.55 0 0 1 21.527-2.152c11.977-1.01 25.886-1.827 34.197-1.132 1.181.099 1.896 1.344 1.37 2.403-4.726 9.525-24.167 48.27-33.903 60.962-.323.42-.822.667-1.353.662l-38.058-.353a1.67 1.67 0 0 1-1.596-2.129" fill="#91B3FA"/>
        <g transform="translate(107.746 177.465)">
            <mask id="cE" fill="#fff">
                <use xlink:href="#cC"/>
            </mask>
            <path d="M13.481.011 1.46 1.857a.838.838 0 0 0-.7.604l-.736 2.9c-.138.543.356 1.044.954.97l11.57-1.424a.849.849 0 0 0 .705-.539l1.19-3.323C14.63.52 14.198 0 13.627 0a.941.941 0 0 0-.146.011" fill="url(#cD)" mask="url(#cE)"/>
        </g>
        <g transform="translate(100.503 181.087)">
            <mask id="cH" fill="#fff">
                <use xlink:href="#cF"/>
            </mask>
            <path d="M25.873.007 2.026 2.457a1.179 1.179 0 0 0-1.032.959L.021 8.549c-.143.756.451 1.447 1.21 1.41l23.303-1.19a1.177 1.177 0 0 0 1.08-.908l1.516-6.397C27.309.71 26.74 0 25.995 0c-.04 0-.081.002-.122.007" fill="url(#cG)" mask="url(#cH)"/>
        </g>
        <g transform="translate(70.624 210.966)">
            <mask id="cK" fill="#fff">
                <use xlink:href="#cI"/>
            </mask>
            <path d="M.218 6.9c-.917 3.38 1.355 12.91 1.355 12.91 3.822.555 6.113-1.107 7.774-2.768 1.785-1.786 2.842-3.57 4.29-2.609 2.796 1.857 4.428-1.039 4.428-1.039l-2.594-2.92c3.8 1.884 4.198-1.642 4.198-1.642L16.88 6.63c4.499 1.421 4.851-2.984 4.851-2.984S14.748 1.103 8.83.136A9.922 9.922 0 0 0 7.23 0C2.576 0 1.046 3.844.218 6.9" fill="url(#cJ)" mask="url(#cK)"/>
        </g>
        <g transform="translate(59.759 139.437)">
            <mask id="cN" fill="#fff">
                <use xlink:href="#cL"/>
            </mask>
            <path d="M8.983 0 .053 26.34a.957.957 0 0 0 .423 1.144c2.434 1.372 11.206 5.34 21.777-1.494a4.479 4.479 0 0 0 2.018-3.192L27.163 0H8.983z" fill="url(#cM)" mask="url(#cN)"/>
        </g>
        <g transform="translate(65.191 114.99)">
            <mask id="cQ" fill="#fff">
                <use xlink:href="#cO"/>
            </mask>
            <path d="m0 6.909 7.448 20.106c10.66 6.108 22.868 6.648 24.13-.874C32.841 18.62 22.991 0 22.991 0L0 6.909z" fill="url(#cP)" mask="url(#cQ)"/>
        </g>
        <g transform="translate(51.61 101.408)">
            <mask id="cT" fill="#fff">
                <use xlink:href="#cR"/>
            </mask>
            <path d="M30.06 3.964a.762.762 0 0 1-1.212.008C27.526 2.24 24.056-1.356 19.236.824c-4.51 2.04-5.019 5.371-4.956 7.05a.763.763 0 0 1-.902.786c-2.28-.438-7.752-.815-10.306 4.844-2.104 4.661-.737 7.3.509 8.59a.773.773 0 0 1-.327 1.277c-1.499.462-3.434 1.743-3.24 5.283.268 4.893 5.695 4.461 7.24 4.239a.76.76 0 0 1 .68.242c1.325 1.478 7.293 7.753 13.754 8.51.56.065.993-.492.81-1.029l-2.796-8.192a.777.777 0 0 1 .415-.961l1.387-.62a.774.774 0 0 0 .334-1.129c-.79-1.217-2.272-3.7-2.744-5.874 0 0-1.775-1.145 4.513-2.662s15.664-3.871 17.634-9.266C42.643 8.075 40.337 0 35.861 0c-1.662 0-3.62 1.111-5.8 3.964" fill="url(#cS)" mask="url(#cT)"/>
        </g>
        <g transform="translate(67.002 131.288)">
            <mask id="cW" fill="#fff">
                <use xlink:href="#cU"/>
            </mask>
            <path d="M.028 1.58C-.497 5.525 6.496 7.295 9.96 5.824L7.735 2.32S4.18 0 1.888 0C.923 0 .184.411.028 1.58" fill="url(#cV)" mask="url(#cW)"/>
        </g>
        <g transform="translate(277.062 403.823)">
            <mask id="cZ" fill="#fff">
                <use xlink:href="#cX"/>
            </mask>
            <path d="m0 0 1.206 37.49c.21 6.538 5.58 11.74 12.157 11.78l89.856.529c4.396.025 8.142-3.166 8.783-7.49C113.407 32.84 115.197 15.9 113.18 0H0z" fill="url(#cY)" mask="url(#cZ)"/>
        </g>
        <path d="m279.779 403.823 1.149 35.446c.2 6.181 5.313 11.1 11.578 11.136l85.576.5c4.187.025 7.754-2.992 8.365-7.081 1.338-8.951 3.043-24.968 1.123-40.001H279.78z" stroke="#FFF" stroke-linecap="round" stroke-dasharray="3,7"/>
        <g transform="translate(303.32 371.227)">
            <mask id="dc" fill="#fff">
                <use xlink:href="#da"/>
            </mask>
            <path d="M1.938.508c-.74.126-1.369.646-1.67 1.38L0 4.965l15.392.468-.494-3.576C13.098.413 10.245 0 7.57 0 5.324 0 3.204.291 1.938.508" fill="url(#db)" mask="url(#dc)"/>
        </g>
        <g transform="translate(308.753 363.078)">
            <mask id="df" fill="#fff">
                <use xlink:href="#dd"/>
            </mask>
            <path d="M0 0v9.053c0 .801.542 1.5 1.31 1.693.635.159 1.269.159 1.902.001a1.748 1.748 0 0 0 1.315-1.701V0H0z" fill="url(#de)" mask="url(#df)"/>
        </g>
        <g transform="translate(348.592 371.227)">
            <mask id="di" fill="#fff">
                <use xlink:href="#dg"/>
            </mask>
            <path d="M1.939.508c-.741.126-1.37.646-1.671 1.38L0 4.965l15.392.468-.494-3.576C13.098.413 10.245 0 7.57 0 5.325 0 3.204.291 1.94.508" fill="url(#dh)" mask="url(#di)"/>
        </g>
        <g transform="translate(354.024 362.173)">
            <mask id="dl" fill="#fff">
                <use xlink:href="#dj"/>
            </mask>
            <path d="M0 0v9.965c0 .799.542 1.495 1.31 1.687a3.884 3.884 0 0 0 1.901.001 1.743 1.743 0 0 0 1.316-1.695V0H0z" fill="url(#dk)" mask="url(#dl)"/>
        </g>
        <g transform="translate(306.036 350.402)">
            <mask id="do" fill="#fff">
                <use xlink:href="#dm"/>
            </mask>
            <path d="M3.082 4.884A4.459 4.459 0 0 0 .358 7.963c-.33 1.334-.55 3.115-.119 4.928.23.963 1.136 1.627 2.145 1.595l49.337-1.607c1.125-.037 2.08-.835 2.273-1.92.27-1.52.508-3.795.153-6.153-.404-2.682-2.75-4.674-5.516-4.739C47.06.03 45.074 0 42.799 0 31.737 0 13.793.715 3.082 4.884" fill="url(#dn)" mask="url(#do)"/>
        </g>
        <path d="M307.525 363.078a.552.552 0 0 1-.543-.502c-.008-.083-.194-2.045.305-3.934.396-1.502 1.555-2.71 3.024-3.153 2.762-.832 8.043-2.244 12.366-2.37.291-.02.553.235.562.545a.554.554 0 0 1-.53.574c-4.202.122-9.379 1.509-12.091 2.325a3.386 3.386 0 0 0-2.277 2.371c-.447 1.692-.275 3.51-.273 3.528a.557.557 0 0 1-.543.616" fill="#91B3FA"/>
        <g transform="translate(275.252 374.85)">
            <mask id="dr" fill="#fff">
                <use xlink:href="#dp"/>
            </mask>
            <path d="M5.315.261A4.234 4.234 0 0 0 1.194 3.74C-.493 13.106.004 27.656.324 33.858c.089 1.74 1.363 3.196 3.09 3.537l49.003 9.687h16.336l45.99-8.652c1.665-.314 2.902-1.73 2.94-3.406.284-12.326-2.111-24.761-3.302-30.114-.375-1.69-1.79-2.952-3.525-3.16C99.123.342 70.706 0 45.845 0 28.015 0 12.01.176 5.315.261" fill="url(#dq)" mask="url(#dr)"/>
        </g>
        <path d="m327.618 418.31-48.432-9.53c-.297-5.808-.795-20.003.817-28.914a.276.276 0 0 1 .271-.231c6.156-.078 22.416-.259 40.401-.259 32.764 0 55.034.591 64.4 1.71.065.008.12.048.13.097 1.047 4.68 3.437 16.78 3.21 28.652l-45.254 8.475h-15.543z" stroke="#FFF" stroke-linecap="round" stroke-dasharray="3,7"/>
        <g transform="translate(323.24 408.35)">
            <mask id="du" fill="#fff">
                <use xlink:href="#ds"/>
            </mask>
            <path d="M3.68 0C1.476 0-.234 1.9.027 4.061L1.67 17.625c.22 1.826 1.79 3.2 3.654 3.2h14.222c1.907 0 3.497-1.436 3.667-3.31l1.219-13.564C24.623 1.828 22.927 0 20.766 0H3.681z" fill="url(#dt)" mask="url(#du)"/>
        </g>
        <g transform="translate(325.956 410.161)">
            <mask id="dx" fill="#fff">
                <use xlink:href="#dv"/>
            </mask>
            <path d="M2.862 0C1.147 0-.183 1.488.021 3.179l1.278 10.614a2.856 2.856 0 0 0 2.842 2.505h11.061a2.854 2.854 0 0 0 2.851-2.59l.95-10.615C19.15 1.43 17.832 0 16.15 0H2.862z" fill="url(#dw)" mask="url(#dx)"/>
        </g>
    </g>
</svg>
